<svg width="215" height="215" viewBox="0 0 215 215" fill="none" xmlns="http://www.w3.org/2000/svg">
<path d="M184.523 119.506L184.923 116.557L206.644 119.504L207.048 116.523C207.116 115.865 207.173 115.205 207.22 114.544C207.267 113.883 207.3 113.242 207.319 112.62C207.336 112.02 207.328 111.448 207.294 110.905C207.278 110.386 207.243 109.929 207.189 109.535L208.414 110.024L205.425 132.062L204.113 132.207C204.271 131.841 204.427 131.399 204.584 130.882C204.758 130.389 204.919 129.84 205.065 129.236C205.209 128.653 205.347 128.036 205.478 127.387C205.609 126.737 205.73 126.086 205.84 125.434L206.244 122.453L184.523 119.506Z" fill="black"/>
<path d="M203.057 139.286L198.995 148.79C198.551 149.83 198.011 150.713 197.376 151.439C196.733 152.185 196.03 152.743 195.269 153.114C194.518 153.512 193.709 153.723 192.841 153.746C191.992 153.778 191.136 153.609 190.273 153.24C189.488 152.905 188.825 152.448 188.284 151.868C187.734 151.309 187.318 150.655 187.034 149.907C186.762 149.188 186.624 148.398 186.62 147.538C186.636 146.686 186.788 145.789 187.075 144.844L180.378 145.775C179.476 145.877 178.607 146.039 177.77 146.261C176.952 146.492 176.13 146.813 175.304 147.226L176.826 143.666L188.215 142.095L190.353 137.093L181.29 133.219L182.46 130.483L203.057 139.286ZM187.747 144.331C187.479 144.959 187.37 145.539 187.421 146.071C187.483 146.631 187.657 147.146 187.943 147.617C188.249 148.095 188.638 148.516 189.109 148.88C189.599 149.252 190.139 149.564 190.727 149.815C191.473 150.134 192.255 150.341 193.073 150.435C193.91 150.538 194.716 150.499 195.488 150.319C196.261 150.139 196.973 149.805 197.622 149.317C198.271 148.829 198.781 148.153 199.149 147.29L201.446 141.834L190.794 137.281L187.747 144.331Z" fill="black"/>
<path d="M182.419 174.975L175.623 161.221L168.615 156.005L170.392 153.617L176.912 158.47L193.329 160.318L191.284 163.064L176.238 161.359L182.744 174.539L182.419 174.975Z" fill="black"/>
<path d="M165.588 176.4C166.539 177.894 167.155 179.398 167.436 180.913C167.711 182.458 167.682 183.943 167.35 185.368C166.999 186.805 166.343 188.158 165.381 189.427C164.401 190.708 163.146 191.836 161.616 192.809C160.068 193.794 158.515 194.453 156.958 194.787C155.4 195.121 153.896 195.142 152.447 194.85C150.997 194.559 149.64 193.956 148.375 193.041C147.104 192.156 145.993 190.966 145.042 189.473C144.103 187.997 143.496 186.486 143.222 184.942C142.94 183.427 142.975 181.951 143.325 180.514C143.675 179.078 144.326 177.716 145.276 176.428C146.239 175.158 147.494 174.031 149.042 173.046C150.571 172.073 152.124 171.414 153.7 171.068C155.269 170.753 156.778 170.741 158.228 171.032C159.66 171.335 161.011 171.929 162.282 172.814C163.547 173.729 164.649 174.924 165.588 176.4ZM160.78 175.818C159.615 174.941 158.37 174.216 157.045 173.643C155.731 173.088 154.418 172.773 153.106 172.698C151.805 172.641 150.558 172.866 149.363 173.373C148.157 173.862 147.089 174.706 146.158 175.905C145.312 177 144.816 178.188 144.67 179.469C144.524 180.75 144.651 182.022 145.05 183.285C145.443 184.578 146.059 185.804 146.898 186.964C147.749 188.142 148.742 189.167 149.877 190.037C150.972 190.883 152.176 191.584 153.49 192.138C154.786 192.705 156.09 193.025 157.402 193.101C158.726 193.194 159.999 192.991 161.223 192.49C162.459 192.007 163.554 191.146 164.51 189.906C165.405 188.729 165.914 187.483 166.037 186.166C166.171 184.866 166.024 183.582 165.595 182.312C165.167 181.043 164.52 179.848 163.656 178.729C162.793 177.61 161.834 176.639 160.78 175.818Z" fill="black"/>
<path d="M121.883 192.414C121.796 192.106 121.7 191.69 121.596 191.165C121.477 190.667 121.405 190.1 121.38 189.464C121.361 188.848 121.421 188.199 121.56 187.517C121.679 186.84 121.946 186.177 122.36 185.528C122.76 184.904 123.327 184.322 124.061 183.782C124.795 183.242 125.747 182.806 126.917 182.474C128.723 181.963 130.316 181.755 131.696 181.852C133.076 181.949 134.261 182.257 135.25 182.775C136.219 183.298 137.011 183.983 137.628 184.828C138.224 185.68 138.661 186.598 138.94 187.583L143.039 202.054L140.175 202.865L136.077 188.394C135.815 187.47 135.46 186.607 135.01 185.803C134.546 185.025 133.964 184.381 133.265 183.869C132.545 183.363 131.689 183.041 130.696 182.901C129.682 182.766 128.498 182.891 127.144 183.275C125.789 183.658 124.73 184.147 123.967 184.74C123.183 185.339 122.632 186.016 122.314 186.771C121.981 187.553 121.844 188.401 121.903 189.315C121.942 190.236 122.11 191.219 122.407 192.266L126.505 206.737L125.982 206.885L121.883 192.414Z" fill="black"/>
<path d="M106.298 185.899L109.274 185.865L109.528 207.784L112.535 207.749C113.196 207.72 113.857 207.68 114.518 207.63C115.179 207.579 115.818 207.519 116.436 207.448C117.033 207.377 117.597 207.285 118.129 207.172C118.64 207.081 119.087 206.979 119.47 206.868L119.165 208.152L96.926 208.409L96.5912 207.133C96.9764 207.235 97.4362 207.326 97.9704 207.405C98.4837 207.506 99.0499 207.585 99.6693 207.642C100.267 207.699 100.897 207.745 101.559 207.78C102.221 207.815 102.882 207.839 103.544 207.853L106.552 207.818L106.298 185.899Z" fill="black"/>
<path d="M77.6714 180.268L80.4537 181.324L72.6761 201.818L75.4884 202.885C76.1143 203.1 76.744 203.304 77.3774 203.499C78.0109 203.694 78.6281 203.871 79.2293 204.031C79.8104 204.183 80.3693 204.304 80.9057 204.393C81.4147 204.495 81.8676 204.564 82.2645 204.601L81.5111 205.684L60.7182 197.793L60.8732 196.483C61.1943 196.719 61.5891 196.971 62.0574 197.24C62.4983 197.521 62.9965 197.802 63.5523 198.081C64.088 198.353 64.6575 198.626 65.2606 198.901C65.8638 199.175 66.4708 199.44 67.0815 199.694L69.8938 200.762L77.6714 180.268Z" fill="black"/>
<path d="M54.39 193.941L46.0314 187.861C45.1171 187.196 44.3769 186.473 43.8107 185.692C43.2273 184.898 42.84 184.089 42.6487 183.264C42.4277 182.443 42.4026 181.607 42.5737 180.756C42.7322 179.921 43.0875 179.125 43.6397 178.365C44.1417 177.675 44.7354 177.131 45.4208 176.733C46.089 176.322 46.8192 176.062 47.6112 175.952C48.3735 175.847 49.1742 175.889 50.0133 176.077C50.8399 176.282 51.6813 176.631 52.5377 177.122L53.1241 170.386C53.2262 169.484 53.2623 168.6 53.2326 167.735C53.1903 166.886 53.0602 166.013 52.8423 165.116L55.9735 167.394L54.9631 178.847L59.3623 182.047L65.1601 174.076L67.5667 175.827L54.39 193.941ZM52.8881 177.891C52.3361 177.49 51.795 177.254 51.2649 177.185C50.7049 177.121 50.1638 177.176 49.6415 177.35C49.1066 177.541 48.6094 177.826 48.1498 178.204C47.6777 178.599 47.2533 179.055 46.8769 179.573C46.4 180.228 46.0243 180.944 45.7497 181.721C45.4626 182.514 45.3206 183.308 45.3237 184.101C45.3267 184.895 45.4937 185.663 45.8246 186.405C46.1554 187.147 46.7004 187.794 47.4595 188.346L52.2657 191.803L59.08 182.435L52.8881 177.891Z" fill="black"/>
<path d="M24.178 165.833L39.1039 162.285L45.7549 156.621L47.6844 158.886L41.4963 164.156L36.0249 179.744L33.8049 177.137L38.8313 162.853L24.5307 166.247L24.178 165.833Z" fill="black"/>
<path d="M26.6683 149.365C25.0014 149.963 23.398 150.231 21.8581 150.171C20.291 150.097 18.8492 149.741 17.5326 149.103C16.2089 148.444 15.0342 147.505 14.0085 146.286C12.9755 145.047 12.1534 143.574 11.5419 141.867C10.9232 140.14 10.6232 138.48 10.6419 136.887C10.6605 135.294 10.972 133.823 11.5763 132.473C12.1807 131.124 13.0686 129.933 14.24 128.902C15.3842 127.857 16.7898 127.037 18.4568 126.44C20.1037 125.85 21.7107 125.591 23.2778 125.665C24.8176 125.725 26.2494 126.085 27.5731 126.743C28.8968 127.402 30.0816 128.338 31.1274 129.549C32.1532 130.768 32.9754 132.241 33.594 133.968C34.2055 135.675 34.5055 137.336 34.494 138.949C34.4553 140.549 34.1338 142.023 33.5295 143.373C32.9179 144.702 32.0401 145.889 30.8959 146.933C29.7244 147.965 28.3152 148.776 26.6683 149.365ZM28.2979 144.805C29.4106 143.862 30.3927 142.808 31.244 141.642C32.0753 140.483 32.6726 139.272 33.0359 138.009C33.3792 136.753 33.4354 135.487 33.2046 134.21C32.9939 132.926 32.4066 131.697 31.4426 130.524C30.5619 129.457 29.513 128.711 28.2957 128.286C27.0784 127.861 25.8096 127.704 24.4895 127.814C23.1421 127.911 21.81 128.241 20.4931 128.803C19.1562 129.373 17.9378 130.115 16.838 131.03C15.7711 131.911 14.8221 132.931 13.9908 134.09C13.1524 135.228 12.5515 136.429 12.1881 137.693C11.8047 138.963 11.7219 140.25 11.9398 141.554C12.1376 142.866 12.7358 144.125 13.7342 145.331C14.6838 146.463 15.7874 147.235 17.0448 147.646C18.2822 148.064 19.5674 148.204 20.9004 148.066C22.2335 147.929 23.5412 147.562 24.8235 146.967C26.1059 146.372 27.264 145.651 28.2979 144.805Z" fill="black"/>
<path d="M20.7283 103.287C21.0478 103.27 21.475 103.268 22.0098 103.282C22.5223 103.275 23.0914 103.33 23.7172 103.446C24.3217 103.563 24.9415 103.764 25.5766 104.05C26.2104 104.315 26.7986 104.721 27.3409 105.269C27.8608 105.796 28.3036 106.477 28.6692 107.312C29.0348 108.147 29.2504 109.171 29.3161 110.386C29.4174 112.26 29.2689 113.86 28.8706 115.185C28.4722 116.509 27.9114 117.597 27.1883 118.448C26.4641 119.278 25.6218 119.9 24.6614 120.315C23.7 120.709 22.708 120.934 21.6855 120.989L6.66742 121.801L6.50673 118.829L21.5248 118.017C22.4834 117.966 23.4043 117.809 24.2875 117.547C25.1482 117.266 25.905 116.84 26.5578 116.271C27.2096 115.68 27.713 114.916 28.0682 113.978C28.4223 113.019 28.5613 111.836 28.4853 110.43C28.4093 109.025 28.166 107.884 27.7555 107.009C27.3438 106.112 26.8046 105.426 26.1379 104.949C25.4487 104.452 24.6516 104.132 23.7466 103.989C22.8404 103.824 21.844 103.771 20.7576 103.83L5.73957 104.642L5.7102 104.099L20.7283 103.287Z" fill="black"/>
<path d="M30.5466 89.1733L29.9112 92.0807L8.49675 87.3999L7.85442 90.3385C7.73404 90.9891 7.62408 91.6421 7.52454 92.2973C7.42501 92.9524 7.34044 93.5891 7.27086 94.2071C7.20583 94.8044 7.16847 95.3749 7.15879 95.9187C7.13282 96.4371 7.13094 96.8953 7.15315 97.2932L5.97101 96.7072L10.7201 74.9802L12.0389 74.9409C11.8527 75.2933 11.661 75.7209 11.4637 76.2237C11.2502 76.7011 11.0461 77.2352 10.8515 77.8259C10.6614 78.3958 10.4749 78.9992 10.292 79.6362C10.1091 80.2731 9.93663 80.9124 9.77456 81.5539L9.13224 84.4925L30.5466 89.1733Z" fill="black"/>
<path d="M42.3833 62.6857L40.7308 65.1608L22.5003 52.9898L20.8301 55.4915C20.4807 56.0534 20.1401 56.6212 19.8083 57.1949C19.4766 57.7686 19.1656 58.3305 18.8753 58.8805C18.5969 59.4129 18.354 59.9304 18.1466 60.4332C17.9332 60.9064 17.7643 61.3323 17.6398 61.7109L16.7529 60.7341L29.1016 42.2374L30.3439 42.6819C30.0419 42.9421 29.7074 43.2703 29.3403 43.6664C28.9673 44.033 28.5825 44.4558 28.1857 44.9348C27.8008 45.3961 27.407 45.8899 27.0043 46.4162C26.6017 46.9425 26.2078 47.4748 25.8229 48.013L24.1527 50.5147L42.3833 62.6857Z" fill="black"/>
<path d="M33.9417 37.1968L41.7125 30.3815C42.5626 29.636 43.4309 29.0731 44.3175 28.6927C45.2201 28.2984 46.0949 28.0987 46.9418 28.0937C47.7907 28.0586 48.6117 28.2182 49.4048 28.5725C50.1838 28.9108 50.8828 29.4328 51.5018 30.1385C52.0644 30.78 52.4646 31.479 52.7023 32.2353C52.956 32.9775 53.0492 33.7471 52.9819 34.5439C52.9165 35.3106 52.6997 36.0825 52.3313 36.8595C51.9489 37.6206 51.4239 38.3647 50.7565 39.092L57.1979 41.1466C58.0552 41.4447 58.9093 41.6745 59.7604 41.8361C60.5975 41.9816 61.4776 42.0468 62.4007 42.0317L59.4897 44.5848L48.5402 41.0783L44.4503 44.6653L50.949 52.0752L48.7116 54.0375L33.9417 37.1968ZM49.9288 39.2645C50.4421 38.8144 50.7907 38.3384 50.9748 37.8364C51.1608 37.3044 51.2264 36.7645 51.1716 36.2167C51.1027 35.6528 50.9345 35.1051 50.667 34.5736C50.3854 34.0261 50.0336 33.5117 49.6116 33.0305C49.0771 32.4211 48.4614 31.897 47.7645 31.4583C47.0535 31.0035 46.3106 30.6903 45.5358 30.5186C44.7609 30.3469 43.9752 30.3408 43.1787 30.5002C42.3821 30.6597 41.631 31.0489 40.9253 31.6678L36.4956 35.5953L44.1338 44.3044L49.9288 39.2645Z" fill="black"/>
<path d="M68.1875 13.7663L68.3391 29.1073L72.388 36.8483L69.751 38.2277L65.9838 31.0254L51.9966 22.235L55.0306 20.6481L67.8453 28.7156L67.7055 14.0184L68.1875 13.7663Z" fill="black"/>
<path d="M83.8924 19.7521C83.6881 17.9933 83.7896 16.3708 84.1968 14.8845C84.6228 13.3746 85.2959 12.0508 86.2161 10.913C87.1575 9.7728 88.3379 8.84106 89.7573 8.11781C91.1978 7.39209 92.8187 6.92463 94.6199 6.71542C96.4424 6.50375 98.1272 6.58725 99.6746 6.96592C101.222 7.3446 102.584 7.98098 103.762 8.87508C104.94 9.76918 105.898 10.9035 106.638 12.278C107.396 13.6289 107.877 15.1837 108.082 16.9426C108.284 18.6802 108.172 20.304 107.746 21.8139C107.338 23.3002 106.664 24.6134 105.723 25.7536C104.781 26.8938 103.602 27.8362 102.185 28.5806C100.766 29.3039 99.1449 29.7713 97.3224 29.983C95.5212 30.1922 93.8363 30.1087 92.2678 29.7325C90.718 29.3326 89.3542 28.6857 88.1765 27.7916C87.02 26.895 86.0627 25.7713 85.3044 24.4204C84.5649 23.0459 84.0942 21.4898 83.8924 19.7521ZM87.9658 22.3717C88.6319 23.6688 89.4365 24.864 90.3796 25.9571C91.3202 27.0291 92.3646 27.885 93.5128 28.5248C94.6584 29.1434 95.8793 29.4848 97.1754 29.5491C98.4739 29.6345 99.8035 29.3405 101.164 28.667C102.403 28.0506 103.367 27.1977 104.056 26.1082C104.746 25.0187 105.186 23.8185 105.378 22.5077C105.588 21.1732 105.568 19.801 105.318 18.3911C105.066 16.9599 104.619 15.6052 103.977 14.3267C103.36 13.0883 102.582 11.933 101.641 10.8611C100.722 9.78662 99.6879 8.9295 98.5397 8.28969C97.3891 7.6287 96.154 7.25672 94.8343 7.17376C93.5121 7.0696 92.1507 7.36733 90.75 8.06693C89.4317 8.73549 88.4302 9.63572 87.7455 10.7676C87.0584 11.8783 86.631 13.0984 86.4633 14.428C86.2956 15.7575 86.3565 17.1142 86.6461 18.4981C86.9357 19.8819 87.3756 21.1731 87.9658 22.3717Z" fill="black"/>
<path d="M130.257 24.2871C130.201 24.6023 130.107 25.0189 129.973 25.5369C129.864 26.0376 129.682 26.5798 129.429 27.1635C129.179 27.7261 128.843 28.2846 128.421 28.8389C128.02 29.3968 127.492 29.8783 126.836 30.2834C126.205 30.6712 125.442 30.9492 124.546 31.1173C123.651 31.2855 122.604 31.2648 121.406 31.0553C119.557 30.7318 118.032 30.2268 116.831 29.5403C115.63 28.8537 114.696 28.0623 114.03 27.1661C113.385 26.2736 112.968 25.3128 112.78 24.2836C112.613 23.2582 112.617 22.2411 112.794 21.2324L115.385 6.41737L118.317 6.93016L115.725 21.7452C115.56 22.6908 115.505 23.6233 115.561 24.5427C115.641 25.4447 115.885 26.2779 116.293 27.0423C116.722 27.8103 117.353 28.473 118.187 29.0303C119.042 29.5913 120.162 29.9931 121.549 30.2357C122.936 30.4784 124.102 30.4982 125.047 30.2954C126.014 30.0962 126.804 29.7255 127.418 29.1833C128.058 28.6238 128.549 27.9192 128.893 27.0697C129.257 26.2239 129.533 25.2651 129.721 24.1934L132.312 9.37832L132.848 9.47206L130.257 24.2871Z" fill="black"/>
<path d="M141.517 36.8804L138.825 35.6098L148.184 15.7882L145.464 14.5039C144.857 14.2408 144.246 13.9874 143.629 13.7436C143.013 13.4998 142.412 13.2748 141.825 13.0685C141.257 12.8714 140.71 12.7072 140.182 12.5759C139.682 12.4345 139.236 12.33 138.844 12.2625L139.679 11.2417L159.79 20.7372L159.533 22.0313C159.232 21.7709 158.858 21.4883 158.412 21.1834C157.995 20.8683 157.52 20.5498 156.988 20.2278C156.475 19.9149 155.928 19.5979 155.349 19.277C154.769 18.956 154.185 18.6447 153.596 18.3431L150.876 17.0588L141.517 36.8804Z" fill="black"/>
<path d="M164.753 54.27L162.703 52.1128L178.592 37.0122L176.52 34.8318C176.049 34.3671 175.57 33.9098 175.084 33.4598C174.597 33.0098 174.118 32.5827 173.645 32.1783C173.187 31.7894 172.736 31.4384 172.291 31.1253C171.877 30.813 171.498 30.5544 171.156 30.3495L172.305 29.6997L187.626 45.8206L186.918 46.9343C186.731 46.5825 186.485 46.1839 186.179 45.7385C185.904 45.2939 185.576 44.8253 185.196 44.3328C184.831 43.8557 184.436 43.3628 184.012 42.854C183.587 42.3453 183.155 41.8438 182.715 41.3498L180.642 39.1694L164.753 54.27Z" fill="black"/>
<path d="M191.871 52.2441L196.763 61.3492C197.298 62.3452 197.651 63.318 197.822 64.2674C198.003 65.2357 198.001 66.1329 197.815 66.9592C197.659 67.7942 197.318 68.5582 196.795 69.2513C196.29 69.9342 195.624 70.4979 194.797 70.9421C194.045 71.346 193.274 71.5786 192.484 71.64C191.703 71.7202 190.933 71.6378 190.171 71.393C189.439 71.1568 188.736 70.7718 188.062 70.238C187.406 69.6941 186.799 69.0152 186.241 68.2012L182.789 74.0151C182.306 74.7833 181.89 75.5639 181.541 76.3568C181.211 77.1396 180.949 77.9824 180.756 78.8853L178.924 75.4744L184.804 65.5947L182.229 60.8026L173.547 65.4673L172.139 62.8457L191.871 52.2441ZM186.259 67.356C186.582 67.9573 186.967 68.4041 187.415 68.6964C187.891 68.9974 188.403 69.1828 188.949 69.2527C189.514 69.3124 190.085 69.2718 190.663 69.1307C191.26 68.9796 191.841 68.7525 192.404 68.4496C193.118 68.066 193.768 67.584 194.352 67.0037C194.955 66.4133 195.427 65.7599 195.769 65.0436C196.111 64.3272 196.293 63.5631 196.317 62.7511C196.341 61.9391 196.131 61.1196 195.687 60.2927L192.857 55.0929L182.652 60.5754L186.259 67.356Z" fill="black"/>
<path d="M206.824 90.407L191.836 87.134L183.387 89.3549L182.63 86.4767L190.491 84.4103L202.179 72.7354L203.049 76.0469L192.328 86.74L206.686 89.8809L206.824 90.407Z" fill="black"/>
</svg>
