<svg width="1440" height="3415" viewBox="0 0 1440 3415" fill="none" xmlns="http://www.w3.org/2000/svg">
<path d="M1 67.6753L110.948 93.2049C245.443 124.434 384.948 127.473 520.675 102.13L705.2 67.6753L897.748 32.8451C1017.78 11.1317 1140.78 11.5637 1260.66 34.1198L1439 67.6753V3314.32L1351.57 3338.62C1171.97 3388.54 981.978 3387.27 803.056 3334.94L732.537 3314.32L570.577 3281.02C439.58 3254.09 304.511 3253.71 173.364 3279.9L1 3314.32V67.6753Z" fill="#A9C7A8"/>
<circle cx="1006" cy="975" r="20.5" stroke="#FAFCE9"/>
<ellipse cx="1026.02" cy="1021.82" rx="9.12953" ry="9.55515" transform="rotate(-12.7829 1026.02 1021.82)" fill="#4B4B4B"/>
<g filter="url(#filter0_f_91_6)">
<rect x="-22.7444" y="2706" width="248" height="411" transform="rotate(17.1591 -22.7444 2706)" fill="#FEFFEC"/>
</g>
<g filter="url(#filter1_f_91_6)">
<path d="M1131.32 1271.63L1416.46 1004.43L1512.28 1358.62L1131.32 1271.63Z" fill="#5F675F"/>
</g>
<path d="M1119 2370.1L1129.32 2360.27L1141.04 2365.69L1130.71 2375.52L1119 2370.1Z" fill="#FAFCE9"/>
<path d="M1206.61 2383.92L1195.88 2378.95L1205.42 2369.87L1216.16 2374.84L1206.61 2383.92Z" stroke="white"/>
<path d="M1160.84 2391.82L1149.03 2392.47L1153.2 2379.97L1165.01 2379.32L1160.84 2391.82Z" stroke="#4B4B4B"/>
<path d="M1197.96 2436.28L1191.99 2423.34L1200.9 2414L1206.87 2426.94L1197.96 2436.28Z" fill="#A6C4A5"/>
<g filter="url(#filter2_f_91_6)">
<ellipse cx="32.5" cy="1933" rx="183.5" ry="199" fill="#4C4C4C"/>
</g>
<path d="M-4.5 1637.5L139.123 1763.36C154.756 1777.05 159.968 1799.17 152.101 1818.4V1818.4C142.665 1841.48 152.181 1867.95 174.147 1879.74L246.749 1918.69C283.2 1938.25 273.666 1992.97 232.748 1999.05V1999.05C195.672 2004.56 182.934 2051.59 212.162 2075.05L289.985 2137.54C385.345 2214.11 512.513 2238.3 629.327 2202.1L770.882 2158.23C824.268 2141.68 882.304 2150.73 928.122 2182.73L1128.07 2322.42C1179.91 2358.63 1201.69 2424.67 1181.59 2484.62V2484.62C1153.16 2569.35 1179.36 2662.85 1247.67 2720.48L1441.5 2884" stroke="white"/>
<circle cx="1386" cy="1051" r="65.5" stroke="white"/>
<path d="M1386 1005L1390.07 1046.24L1422 1051.5L1390.07 1056.76L1386 1098L1381.93 1056.76L1350 1051.5L1381.93 1046.24L1386 1005Z" fill="white"/>
<circle cx="84" cy="1146" r="65.5" stroke="#4C4D4C"/>
<path d="M84 1100L88.0729 1141.24L120 1146.5L88.0729 1151.76L84 1193L79.9271 1151.76L48 1146.5L79.9271 1141.24L84 1100Z" fill="#4C4D4C"/>
<g filter="url(#filter3_f_91_6)">
<path d="M1165 206L1182.83 294.654L1251.27 246.126L1208.05 322.974L1287 343L1208.05 363.026L1251.27 439.874L1182.83 391.346L1165 480L1147.17 391.346L1078.73 439.874L1121.95 363.026L1043 343L1121.95 322.974L1078.73 246.126L1147.17 294.654L1165 206Z" fill="#FEFFEC"/>
</g>
<g filter="url(#filter4_f_91_6)">
<path d="M699.5 547L728.265 634.224L806 666.5L728.265 698.776L699.5 786L670.735 698.776L593 666.5L670.735 634.224L699.5 547Z" fill="#4B4B4B"/>
</g>
<g filter="url(#filter5_f_91_6)">
<path d="M1187.5 1946L1216.26 2033.22L1294 2065.5L1216.26 2097.78L1187.5 2185L1158.74 2097.78L1081 2065.5L1158.74 2033.22L1187.5 1946Z" fill="#FDFFEB"/>
</g>
<g filter="url(#filter6_f_91_6)">
<path d="M1187 2013L1199.69 2051.32L1234 2065.5L1199.69 2079.68L1187 2118L1174.31 2079.68L1140 2065.5L1174.31 2051.32L1187 2013Z" fill="#A9C7A8"/>
</g>
<path d="M668.406 624L650.882 679.228L611 695.336L650.882 712.019L668.406 773L683.513 712.019L724 695.336L683.513 679.228L668.406 624Z" stroke="#A9C7A8"/>
<path d="M1132.5 274.953L1130.02 301.373L1110.7 284.58L1109.98 285.263L1125.84 305.858L1100.95 308.503L1100.95 309.497L1125.84 312.139L1109.98 332.736L1110.7 333.419L1130.02 316.628L1132.5 343.047L1133.5 343.047L1135.98 316.628L1155.3 333.419L1156.02 332.736L1140.16 312.139L1165.05 309.497L1165.05 308.503L1140.16 305.858L1156.02 285.263L1155.3 284.58L1135.98 301.373L1133.5 274.953L1132.5 274.953Z" stroke="#A9C7A8"/>
<circle cx="216" cy="1522" r="65.5" stroke="#FCFEEB"/>
<path d="M216 1476L218.204 1515.63L241.456 1489.62L221.322 1519.65L252 1522.5L221.322 1525.35L241.456 1555.38L218.204 1529.37L216 1569L213.796 1529.37L190.544 1555.38L210.678 1525.35L180 1522.5L210.678 1519.65L190.544 1489.62L213.796 1515.63L216 1476Z" fill="#FCFEEB"/>
<path d="M990.284 2304.01L999.278 2316.16L985.969 2317V2318L999.278 2318.84L990.284 2330.99L991.056 2331.63L1000.82 2320.9L1001.5 2337.02H1002.5L1003.18 2320.9L1012.94 2331.63L1013.72 2330.99L1004.72 2318.84L1018.03 2318V2317L1004.72 2316.16L1013.72 2304.01L1012.94 2303.37L1003.18 2314.1L1002.5 2297.98H1001.5L1000.82 2314.1L991.056 2303.37L990.284 2304.01Z" stroke="#4B4B4B"/>
<path d="M1183.19 1246.67L1208.29 1280.65L1170.97 1283V1284L1208.29 1286.35L1183.19 1320.33L1183.96 1320.96L1211.58 1290.56L1213.5 1336.02H1214.5L1216.42 1290.56L1244.04 1320.96L1244.81 1320.33L1219.71 1286.35L1257.03 1284V1283L1219.71 1280.65L1244.81 1246.67L1244.04 1246.04L1216.42 1276.44L1214.5 1230.98H1213.5L1211.58 1276.44L1183.96 1246.04L1183.19 1246.67Z" stroke="#A4C2A3"/>
<ellipse cx="1228.06" cy="1123.43" rx="12.7402" ry="11.9064" transform="rotate(-12.7829 1228.06 1123.43)" fill="#4B4B4B"/>
<path d="M1267.53 1126.08C1268.1 1128.58 1266.62 1131 1264.29 1131.53C1261.96 1132.06 1259.58 1130.51 1259.01 1128.02C1258.44 1125.52 1259.92 1123.1 1262.25 1122.57C1264.59 1122.04 1266.97 1123.58 1267.53 1126.08Z" stroke="#4B4B4B"/>
<path d="M1140.16 1111.16C1140.61 1113.14 1139.44 1115.06 1137.59 1115.48C1135.75 1115.9 1133.86 1114.68 1133.41 1112.69C1132.95 1110.7 1134.13 1108.78 1135.98 1108.36C1137.82 1107.95 1139.71 1109.17 1140.16 1111.16Z" stroke="white"/>
<ellipse cx="1175.78" cy="1052.92" rx="3.96489" ry="4.14974" transform="rotate(-12.7829 1175.78 1052.92)" fill="#FEFFEC"/>
<ellipse cx="1265.78" cy="1167.92" rx="3.96489" ry="4.14974" transform="rotate(-12.7829 1265.78 1167.92)" fill="#A9C7A8"/>
<path d="M1291.16 1122.16C1291.61 1124.14 1290.44 1126.06 1288.59 1126.48C1286.75 1126.9 1284.86 1125.68 1284.41 1123.69C1283.95 1121.7 1285.13 1119.78 1286.98 1119.36C1288.82 1118.95 1290.71 1120.17 1291.16 1122.16Z" stroke="#A8C6A7"/>
<ellipse cx="1060.31" cy="1051.43" rx="3.56999" ry="3.73643" transform="rotate(-12.7829 1060.31 1051.43)" fill="#FEFFEC"/>
<path d="M1297.7 1157.75C1298.1 1159.52 1297.05 1161.22 1295.42 1161.59C1293.78 1161.96 1292.11 1160.88 1291.71 1159.11C1291.31 1157.35 1292.35 1155.65 1293.99 1155.28C1295.62 1154.91 1297.29 1155.99 1297.7 1157.75Z" stroke="#FEFFEC"/>
<ellipse cx="1111.31" cy="1046.43" rx="3.56999" ry="3.73643" transform="rotate(-12.7829 1111.31 1046.43)" fill="#4B4B4B"/>
<path d="M130 3051.1L140.324 3041.27L152.037 3046.69L141.713 3056.52L130 3051.1Z" fill="#A6C4A5"/>
<path d="M152 2960.32L162.324 2950.5L174.037 2955.92L163.713 2965.74L152 2960.32Z" fill="#FAFCE9"/>
<path d="M189.52 2999.84L177.707 3000.48L181.881 2987.99L193.694 2987.34L189.52 2999.84Z" stroke="#4B4B4B"/>
<path d="M29.2702 2951.84L21.1068 2960.4L15.5866 2948.44L23.75 2939.88L29.2702 2951.84Z" stroke="#4B4B4B"/>
<path d="M-93.4999 942.5V942.5C60.0407 844.132 234.444 783.005 415.799 763.994L644.393 740.031C650.417 739.4 654.581 745.912 651.479 751.116V751.116C634.985 778.785 623.173 808.989 616.522 840.508L605.325 893.571C601.349 912.415 621.586 927.053 638.238 917.378L646.475 912.593C770.116 840.756 903.06 786.287 1041.56 750.721L1204.32 708.926L1186.06 724.212C1146.12 757.665 1179.62 833.819 1231.65 831.122C1259.66 829.67 1277.88 829.962 1274.83 833.095C1263 845.23 1218.59 888.509 1231.61 890.781C1242.03 892.599 1400.99 755.169 1479.16 686.227" stroke="white"/>
<path d="M68 1882L75.7216 1928.83L120 1937L75.7216 1945.17L68 1992L60.2784 1945.17L16 1937L60.2784 1928.83L68 1882Z" fill="#FDFFEB"/>
<path d="M119.228 1928.91L119.285 1929.26L119.631 1929.32L161.243 1937L119.631 1944.68L119.285 1944.74L119.228 1945.09L112 1988.93L104.772 1945.09L104.715 1944.74L104.369 1944.68L62.7565 1937L104.369 1929.32L104.715 1929.26L104.772 1928.91L112 1885.07L119.228 1928.91Z" fill="#4C4C4C" stroke="#FDFFEB"/>
<path d="M78.116 3041.19L70.8093 3056.89L60.8627 3042.71L78.116 3041.19Z" fill="#4C4C4C"/>
<path d="M294.296 2909.32L309.079 2904.37L305.972 2919.65L294.296 2909.32Z" stroke="#4C4C4C"/>
<path d="M259.296 2985.32L274.079 2980.37L270.972 2995.65L259.296 2985.32Z" stroke="white"/>
<path d="M936.284 2222.01L945.278 2234.16L931.969 2235V2236L945.278 2236.84L936.284 2248.99L937.056 2249.63L946.817 2238.9L947.5 2255.02H948.5L949.183 2238.9L958.944 2249.63L959.716 2248.99L950.722 2236.84L964.031 2236V2235L950.722 2234.16L959.716 2222.01L958.944 2221.37L949.183 2232.1L948.5 2215.98H947.5L946.817 2232.1L937.056 2221.37L936.284 2222.01Z" fill="#A8C6A8" stroke="#F9FBE7"/>
<circle cx="273" cy="671" r="65.5" stroke="#A9C7A8"/>
<path d="M273 625L277.073 666.239L309 671.5L277.073 676.761L273 718L268.927 676.761L237 671.5L268.927 666.239L273 625Z" fill="#A9C7A8"/>
<defs>
<filter id="filter0_f_91_6" x="-189" y="2661" width="448.217" height="555.873" filterUnits="userSpaceOnUse" color-interpolation-filters="sRGB">
<feFlood flood-opacity="0" result="BackgroundImageFix"/>
<feBlend mode="normal" in="SourceGraphic" in2="BackgroundImageFix" result="shape"/>
<feGaussianBlur stdDeviation="22.5" result="effect1_foregroundBlur_91_6"/>
</filter>
<filter id="filter1_f_91_6" x="1098.32" y="971.43" width="446.959" height="420.195" filterUnits="userSpaceOnUse" color-interpolation-filters="sRGB">
<feFlood flood-opacity="0" result="BackgroundImageFix"/>
<feBlend mode="normal" in="SourceGraphic" in2="BackgroundImageFix" result="shape"/>
<feGaussianBlur stdDeviation="16.5" result="effect1_foregroundBlur_91_6"/>
</filter>
<filter id="filter2_f_91_6" x="-212" y="1673" width="489" height="520" filterUnits="userSpaceOnUse" color-interpolation-filters="sRGB">
<feFlood flood-opacity="0" result="BackgroundImageFix"/>
<feBlend mode="normal" in="SourceGraphic" in2="BackgroundImageFix" result="shape"/>
<feGaussianBlur stdDeviation="30.5" result="effect1_foregroundBlur_91_6"/>
</filter>
<filter id="filter3_f_91_6" x="1019" y="182" width="292" height="322" filterUnits="userSpaceOnUse" color-interpolation-filters="sRGB">
<feFlood flood-opacity="0" result="BackgroundImageFix"/>
<feBlend mode="normal" in="SourceGraphic" in2="BackgroundImageFix" result="shape"/>
<feGaussianBlur stdDeviation="12" result="effect1_foregroundBlur_91_6"/>
</filter>
<filter id="filter4_f_91_6" x="569" y="523" width="261" height="287" filterUnits="userSpaceOnUse" color-interpolation-filters="sRGB">
<feFlood flood-opacity="0" result="BackgroundImageFix"/>
<feBlend mode="normal" in="SourceGraphic" in2="BackgroundImageFix" result="shape"/>
<feGaussianBlur stdDeviation="12" result="effect1_foregroundBlur_91_6"/>
</filter>
<filter id="filter5_f_91_6" x="1057" y="1922" width="261" height="287" filterUnits="userSpaceOnUse" color-interpolation-filters="sRGB">
<feFlood flood-opacity="0" result="BackgroundImageFix"/>
<feBlend mode="normal" in="SourceGraphic" in2="BackgroundImageFix" result="shape"/>
<feGaussianBlur stdDeviation="12" result="effect1_foregroundBlur_91_6"/>
</filter>
<filter id="filter6_f_91_6" x="1116" y="1989" width="142" height="153" filterUnits="userSpaceOnUse" color-interpolation-filters="sRGB">
<feFlood flood-opacity="0" result="BackgroundImageFix"/>
<feBlend mode="normal" in="SourceGraphic" in2="BackgroundImageFix" result="shape"/>
<feGaussianBlur stdDeviation="12" result="effect1_foregroundBlur_91_6"/>
</filter>
</defs>
</svg>
