<svg width="1440" height="3221" viewBox="0 0 1440 3221" fill="none" xmlns="http://www.w3.org/2000/svg">
<path d="M1197.96 2254.28L1191.99 2241.34L1200.9 2232L1206.87 2244.94L1197.96 2254.28Z" fill="#A6C4A5"/>
<path d="M990.284 2122.01L999.278 2134.16L985.969 2135V2136L999.278 2136.84L990.284 2148.99L991.056 2149.63L1000.82 2138.9L1001.5 2155.02H1002.5L1003.18 2138.9L1012.94 2149.63L1013.72 2148.99L1004.72 2136.84L1018.03 2136V2135L1004.72 2134.16L1013.72 2122.01L1012.94 2121.37L1003.18 2132.1L1002.5 2115.98H1001.5L1000.82 2132.1L991.056 2121.37L990.284 2122.01Z" stroke="#4B4B4B"/>
<path d="M188.614 2679.92L177.878 2674.95L187.423 2665.87L198.159 2670.84L188.614 2679.92Z" stroke="white"/>
<path d="M242.284 2347.01L251.278 2359.16L237.969 2360V2361L251.278 2361.84L242.284 2373.99L243.056 2374.63L252.817 2363.9L253.5 2380.02H254.5L255.183 2363.9L264.944 2374.63L265.716 2373.99L256.722 2361.84L270.031 2361V2360L256.722 2359.16L265.716 2347.01L264.944 2346.37L255.183 2357.1L254.5 2340.98H253.5L252.817 2357.1L243.056 2346.37L242.284 2347.01Z" stroke="#4B4B4B"/>
<path d="M395 2120L396.358 2137.85L411 2139.5L396.358 2141.15L395 2159L393.642 2141.15L379 2139.5L393.642 2137.85L395 2120Z" fill="#F5F8E5"/>
<path d="M195.499 2087.96H194.501L193.175 2105.39L178.944 2107V2108L193.175 2109.61L194.501 2127.04H195.499L196.825 2109.61L211.056 2108V2107L196.825 2105.39L195.499 2087.96Z" stroke="white"/>
<path d="M452.482 2275.2L462.806 2265.38L474.518 2270.8L464.194 2280.62L452.482 2275.2Z" fill="#FAFCE9"/>
<path d="M134 2584L142.66 2599H125.34L134 2584Z" fill="#FEFFEC"/>
<path d="M936.284 2040.01L945.278 2052.16L931.969 2053V2054L945.278 2054.84L936.284 2066.99L937.056 2067.63L946.817 2056.9L947.5 2073.02H948.5L949.183 2056.9L958.944 2067.63L959.716 2066.99L950.722 2054.84L964.031 2054V2053L950.722 2052.16L959.716 2040.01L958.944 2039.37L949.183 2050.1L948.5 2033.98H947.5L946.817 2050.1L937.056 2039.37L936.284 2040.01Z" fill="#A8C6A8" stroke="#F9FBE7"/>
<path d="M419.5 2868.97L433.196 2921.14L433.252 2921.35L433.449 2921.46L470.919 2941L433.449 2960.54L433.252 2960.65L433.196 2960.86L419.5 3013.03L405.804 2960.86L405.748 2960.65L405.551 2960.54L368.081 2941L405.551 2921.46L405.748 2921.35L405.804 2921.14L419.5 2868.97Z" stroke="#4C4C4C"/>
<g filter="url(#filter0_f_91_19)">
<rect x="-22.7444" y="2524" width="248" height="411" transform="rotate(17.1591 -22.7444 2524)" fill="#FEFFEC"/>
</g>
<path d="M1119 2188.1L1129.32 2178.27L1141.04 2183.69L1130.71 2193.52L1119 2188.1Z" fill="#FAFCE9"/>
<path d="M1206.61 2201.92L1195.88 2196.95L1205.42 2187.87L1216.16 2192.84L1206.61 2201.92Z" stroke="white"/>
<path d="M1160.84 2209.82L1149.03 2210.47L1153.2 2197.97L1165.01 2197.32L1160.84 2209.82Z" stroke="#4B4B4B"/>
<path d="M1149.54 2156.61L1141.38 2165.17L1135.86 2153.21L1144.02 2144.65L1149.54 2156.61Z" stroke="#4B4B4B"/>
<g filter="url(#filter1_f_91_19)">
<ellipse cx="32.5" cy="1751" rx="183.5" ry="199" fill="#4C4C4C"/>
</g>
<path d="M-4.5 1455.5L139.123 1581.36C154.756 1595.05 159.968 1617.17 152.101 1636.4V1636.4C142.665 1659.48 152.181 1685.95 174.147 1697.74L246.749 1736.69C283.2 1756.25 273.666 1810.97 232.748 1817.05V1817.05C195.672 1822.56 182.934 1869.59 212.162 1893.05L289.985 1955.54C385.345 2032.11 512.513 2056.3 629.327 2020.1L770.882 1976.23C824.268 1959.68 882.304 1968.73 928.122 2000.73L1128.07 2140.42C1179.91 2176.63 1201.69 2242.67 1181.59 2302.62V2302.62C1153.16 2387.35 1179.36 2480.85 1247.67 2538.48L1441.5 2702" stroke="white"/>
<g filter="url(#filter2_f_91_19)">
<path d="M1187.5 1764L1216.26 1851.22L1294 1883.5L1216.26 1915.78L1187.5 2003L1158.74 1915.78L1081 1883.5L1158.74 1851.22L1187.5 1764Z" fill="#FDFFEB"/>
</g>
<circle cx="1440" cy="2145" r="65.5" stroke="#4B4B4B"/>
<path d="M1440 2099L1442.2 2138.63L1465.46 2112.62L1445.32 2142.65L1476 2145.5L1445.32 2148.35L1465.46 2178.38L1442.2 2152.37L1440 2192L1437.8 2152.37L1414.54 2178.38L1434.68 2148.35L1404 2145.5L1434.68 2142.65L1414.54 2112.62L1437.8 2138.63L1440 2099Z" fill="#4B4B4B"/>
<path d="M130 2869.1L140.324 2859.27L152.037 2864.69L141.713 2874.52L130 2869.1Z" fill="#A6C4A5"/>
<path d="M152 2778.32L162.324 2768.5L174.037 2773.92L163.713 2783.74L152 2778.32Z" fill="#FAFCE9"/>
<path d="M189.52 2817.84L177.707 2818.48L181.881 2805.99L193.694 2805.34L189.52 2817.84Z" stroke="#4B4B4B"/>
<path d="M29.2702 2769.84L21.1068 2778.4L15.5866 2766.44L23.75 2757.88L29.2702 2769.84Z" stroke="#4B4B4B"/>
<path d="M28.9611 2618.28L22.9902 2605.34L31.8958 2596L37.8666 2608.94L28.9611 2618.28Z" fill="#A6C4A5"/>
<path d="M68 1700L75.7216 1746.83L120 1755L75.7216 1763.17L68 1810L60.2784 1763.17L16 1755L60.2784 1746.83L68 1700Z" fill="#FDFFEB"/>
<path d="M119.228 1746.91L119.285 1747.26L119.631 1747.32L161.243 1755L119.631 1762.68L119.285 1762.74L119.228 1763.09L112 1806.93L104.772 1763.09L104.715 1762.74L104.369 1762.68L62.7565 1755L104.369 1747.32L104.715 1747.26L104.772 1746.91L112 1703.07L119.228 1746.91Z" fill="#4C4C4C" stroke="#FDFFEB"/>
<path d="M1243 1677L1251.66 1692H1234.34L1243 1677Z" fill="#FEFFEC"/>
<path d="M1246 1685L1254.66 1700H1237.34L1246 1685Z" fill="#A9C7A8"/>
<path d="M1312.12 1667.19L1304.81 1682.89L1294.86 1668.71L1312.12 1667.19Z" fill="#4C4C4C"/>
<path d="M1214.3 1623.32L1229.08 1618.37L1225.97 1633.65L1214.3 1623.32Z" stroke="#4C4C4C"/>
<path d="M1176.3 1697.32L1191.08 1692.37L1187.97 1707.65L1176.3 1697.32Z" stroke="white"/>
<path d="M78.116 2859.19L70.8093 2874.89L60.8627 2860.71L78.116 2859.19Z" fill="#4C4C4C"/>
<path d="M294.296 2727.32L309.079 2722.37L305.972 2737.65L294.296 2727.32Z" stroke="#4C4C4C"/>
<path d="M259.296 2803.32L274.079 2798.37L270.972 2813.65L259.296 2803.32Z" stroke="white"/>
<g filter="url(#filter3_f_91_19)">
<path d="M1394.5 2958L1410.07 3035.33L1469.81 2993L1432.08 3060.03L1501 3077.5L1432.08 3094.97L1469.81 3162L1410.07 3119.67L1394.5 3197L1378.93 3119.67L1319.19 3162L1356.92 3094.97L1288 3077.5L1356.92 3060.03L1319.19 2993L1378.93 3035.33L1394.5 2958Z" fill="white"/>
</g>
<path d="M1321.19 3040.67L1346.29 3074.65L1308.97 3077V3078L1346.29 3080.35L1321.19 3114.33L1321.96 3114.96L1349.58 3084.56L1351.5 3130.02H1352.5L1354.42 3084.56L1382.04 3114.96L1382.81 3114.33L1357.71 3080.35L1395.03 3078V3077L1357.71 3074.65L1382.81 3040.67L1382.04 3040.04L1354.42 3070.44L1352.5 3024.98H1351.5L1349.58 3070.44L1321.96 3040.04L1321.19 3040.67Z" stroke="#A7C5A6"/>
<path d="M848.5 2335L862.68 2389.01L901 2409L862.68 2428.99L848.5 2483L834.32 2428.99L796 2409L834.32 2389.01L848.5 2335Z" fill="#FEFFEC"/>
<path d="M863.5 2335L877.68 2389.01L916 2409L877.68 2428.99L863.5 2483L849.32 2428.99L811 2409L849.32 2389.01L863.5 2335Z" fill="#9FBE9F"/>
<circle cx="1006" cy="793" r="20.5" stroke="#FAFCE9"/>
<ellipse cx="1026.02" cy="839.823" rx="9.12953" ry="9.55515" transform="rotate(-12.7829 1026.02 839.823)" fill="#4B4B4B"/>
<g filter="url(#filter4_f_91_19)">
<path d="M1131.32 1089.63L1416.46 822.43L1512.28 1176.63L1131.32 1089.63Z" fill="#5F675F"/>
</g>
<circle cx="1386" cy="869" r="65.5" stroke="white"/>
<path d="M1386 823L1390.07 864.239L1422 869.5L1390.07 874.761L1386 916L1381.93 874.761L1350 869.5L1381.93 864.239L1386 823Z" fill="white"/>
<circle cx="84" cy="964" r="65.5" stroke="#4C4D4C"/>
<path d="M84 918L88.0729 959.239L120 964.5L88.0729 969.761L84 1011L79.9271 969.761L48 964.5L79.9271 959.239L84 918Z" fill="#4C4D4C"/>
<circle cx="216" cy="1340" r="65.5" stroke="#FCFEEB"/>
<path d="M216 1294L218.204 1333.63L241.456 1307.62L221.322 1337.65L252 1340.5L221.322 1343.35L241.456 1373.38L218.204 1347.37L216 1387L213.796 1347.37L190.544 1373.38L210.678 1343.35L180 1340.5L210.678 1337.65L190.544 1307.62L213.796 1333.63L216 1294Z" fill="#FCFEEB"/>
<path d="M1183.19 1064.67L1208.29 1098.65L1170.97 1101V1102L1208.29 1104.35L1183.19 1138.33L1183.96 1138.96L1211.58 1108.56L1213.5 1154.02H1214.5L1216.42 1108.56L1244.04 1138.96L1244.81 1138.33L1219.71 1104.35L1257.03 1102V1101L1219.71 1098.65L1244.81 1064.67L1244.04 1064.04L1216.42 1094.44L1214.5 1048.98H1213.5L1211.58 1094.44L1183.96 1064.04L1183.19 1064.67Z" stroke="#A4C2A3"/>
<ellipse cx="1228.06" cy="941.43" rx="12.7402" ry="11.9064" transform="rotate(-12.7829 1228.06 941.43)" fill="#4B4B4B"/>
<path d="M1267.53 944.083C1268.1 946.581 1266.62 949.005 1264.29 949.534C1261.96 950.064 1259.58 948.515 1259.01 946.017C1258.44 943.519 1259.92 941.095 1262.25 940.566C1264.59 940.036 1266.97 941.585 1267.53 944.083Z" stroke="#4B4B4B"/>
<path d="M1140.16 929.158C1140.61 931.144 1139.44 933.065 1137.59 933.483C1135.75 933.902 1133.86 932.678 1133.41 930.691C1132.95 928.704 1134.13 926.784 1135.98 926.365C1137.82 925.946 1139.71 927.171 1140.16 929.158Z" stroke="white"/>
<ellipse cx="1175.78" cy="870.924" rx="3.96489" ry="4.14974" transform="rotate(-12.7829 1175.78 870.924)" fill="#FEFFEC"/>
<ellipse cx="1265.78" cy="985.924" rx="3.96489" ry="4.14974" transform="rotate(-12.7829 1265.78 985.924)" fill="#A9C7A8"/>
<ellipse cx="1060.31" cy="869.434" rx="3.56999" ry="3.73643" transform="rotate(-12.7829 1060.31 869.434)" fill="#FEFFEC"/>
<path d="M1297.7 975.754C1298.1 977.519 1297.05 979.219 1295.42 979.59C1293.78 979.96 1292.11 978.877 1291.71 977.113C1291.31 975.349 1292.35 973.648 1293.99 973.277C1295.62 972.907 1297.29 973.99 1297.7 975.754Z" stroke="#FEFFEC"/>
<ellipse cx="1111.31" cy="864.434" rx="3.56999" ry="3.73643" transform="rotate(-12.7829 1111.31 864.434)" fill="#4B4B4B"/>
<path d="M-93.4999 760.5V760.5C60.0407 662.132 234.444 601.005 415.799 581.994L644.393 558.032C650.417 557.4 654.581 563.913 651.479 569.116V569.116C634.985 596.785 623.173 626.989 616.522 658.508L605.325 711.572C601.349 730.415 621.586 745.053 638.238 735.379L646.475 730.593C770.116 658.756 903.06 604.287 1041.56 568.721L1204.32 526.926L1186.06 542.212C1146.12 575.665 1179.62 651.819 1231.65 649.122C1259.66 647.671 1277.88 647.962 1274.83 651.095C1263 663.23 1218.59 706.509 1231.61 708.781C1242.03 710.599 1400.99 573.169 1479.16 504.227" stroke="white"/>
<circle cx="277" cy="493" r="65.5" stroke="white"/>
<path d="M277 447L281.073 488.239L313 493.5L281.073 498.761L277 540L272.927 498.761L241 493.5L272.927 488.239L277 447Z" fill="white"/>
<g filter="url(#filter5_f_91_19)">
<path d="M1165 24L1182.83 112.654L1251.27 64.1264L1208.05 140.974L1287 161L1208.05 181.026L1251.27 257.874L1182.83 209.346L1165 298L1147.17 209.346L1078.73 257.874L1121.95 181.026L1043 161L1121.95 140.974L1078.73 64.1264L1147.17 112.654L1165 24Z" fill="#FEFFEC"/>
</g>
<g filter="url(#filter6_f_91_19)">
<path d="M699.5 365L728.265 452.224L806 484.5L728.265 516.776L699.5 604L670.735 516.776L593 484.5L670.735 452.224L699.5 365Z" fill="#4B4B4B"/>
</g>
<path d="M668.406 442L650.882 497.228L611 513.336L650.882 530.019L668.406 591L683.513 530.019L724 513.336L683.513 497.228L668.406 442Z" stroke="#A9C7A8"/>
<path d="M467.046 213.337C467.016 234.029 448.38 252.9 417.883 266.609C387.433 280.298 345.346 288.744 298.845 288.676C252.344 288.608 210.282 280.04 179.871 266.262C149.414 252.463 130.834 233.537 130.864 212.846C130.895 192.154 149.53 173.283 180.027 159.573C210.478 145.884 252.565 137.439 299.066 137.507C345.566 137.574 387.629 146.143 418.039 159.921C448.496 173.72 467.076 192.645 467.046 213.337Z" stroke="white"/>
<path d="M448.509 279.411C440.213 298.367 415.589 308.22 382.155 308.602C348.771 308.983 306.815 299.908 264.215 281.265C221.615 262.621 186.48 237.959 164.108 213.178C141.702 188.359 132.232 163.585 140.528 144.629C148.824 125.673 173.447 115.821 206.882 115.439C240.266 115.058 282.222 124.133 324.822 142.776C367.422 161.419 402.556 186.081 424.928 210.863C447.334 235.682 456.804 260.455 448.509 279.411Z" stroke="#4B4B4B"/>
<path d="M1132.5 92.9531L1130.02 119.373L1110.7 102.58L1109.98 103.263L1125.84 123.858L1100.95 126.503L1100.95 127.497L1125.84 130.139L1109.98 150.736L1110.7 151.419L1130.02 134.628L1132.5 161.047L1133.5 161.047L1135.98 134.628L1155.3 151.419L1156.02 150.736L1140.16 130.139L1165.05 127.497L1165.05 126.503L1140.16 123.858L1156.02 103.263L1155.3 102.58L1135.98 119.373L1133.5 92.9532L1132.5 92.9531Z" stroke="#A9C7A8"/>
<circle cx="765" cy="71" r="65.5" stroke="#4B4B4B"/>
<path d="M765 25L767.204 64.6263L790.456 38.6195L770.322 68.6528L801 71.5L770.322 74.3472L790.456 104.38L767.204 78.3737L765 118L762.796 78.3737L739.544 104.38L759.678 74.3472L729 71.5L759.678 68.6528L739.544 38.6195L762.796 64.6263L765 25Z" fill="#4B4B4B"/>
<circle cx="273" cy="489" r="65.5" stroke="#A9C7A8"/>
<path d="M273 443L277.073 484.239L309 489.5L277.073 494.761L273 536L268.927 494.761L237 489.5L268.927 484.239L273 443Z" fill="#A9C7A8"/>
<defs>
<filter id="filter0_f_91_19" x="-189" y="2479" width="448.217" height="555.873" filterUnits="userSpaceOnUse" color-interpolation-filters="sRGB">
<feFlood flood-opacity="0" result="BackgroundImageFix"/>
<feBlend mode="normal" in="SourceGraphic" in2="BackgroundImageFix" result="shape"/>
<feGaussianBlur stdDeviation="22.5" result="effect1_foregroundBlur_91_19"/>
</filter>
<filter id="filter1_f_91_19" x="-212" y="1491" width="489" height="520" filterUnits="userSpaceOnUse" color-interpolation-filters="sRGB">
<feFlood flood-opacity="0" result="BackgroundImageFix"/>
<feBlend mode="normal" in="SourceGraphic" in2="BackgroundImageFix" result="shape"/>
<feGaussianBlur stdDeviation="30.5" result="effect1_foregroundBlur_91_19"/>
</filter>
<filter id="filter2_f_91_19" x="1057" y="1740" width="261" height="287" filterUnits="userSpaceOnUse" color-interpolation-filters="sRGB">
<feFlood flood-opacity="0" result="BackgroundImageFix"/>
<feBlend mode="normal" in="SourceGraphic" in2="BackgroundImageFix" result="shape"/>
<feGaussianBlur stdDeviation="12" result="effect1_foregroundBlur_91_19"/>
</filter>
<filter id="filter3_f_91_19" x="1264" y="2934" width="261" height="287" filterUnits="userSpaceOnUse" color-interpolation-filters="sRGB">
<feFlood flood-opacity="0" result="BackgroundImageFix"/>
<feBlend mode="normal" in="SourceGraphic" in2="BackgroundImageFix" result="shape"/>
<feGaussianBlur stdDeviation="12" result="effect1_foregroundBlur_91_19"/>
</filter>
<filter id="filter4_f_91_19" x="1098.32" y="789.43" width="446.959" height="420.195" filterUnits="userSpaceOnUse" color-interpolation-filters="sRGB">
<feFlood flood-opacity="0" result="BackgroundImageFix"/>
<feBlend mode="normal" in="SourceGraphic" in2="BackgroundImageFix" result="shape"/>
<feGaussianBlur stdDeviation="16.5" result="effect1_foregroundBlur_91_19"/>
</filter>
<filter id="filter5_f_91_19" x="1019" y="0" width="292" height="322" filterUnits="userSpaceOnUse" color-interpolation-filters="sRGB">
<feFlood flood-opacity="0" result="BackgroundImageFix"/>
<feBlend mode="normal" in="SourceGraphic" in2="BackgroundImageFix" result="shape"/>
<feGaussianBlur stdDeviation="12" result="effect1_foregroundBlur_91_19"/>
</filter>
<filter id="filter6_f_91_19" x="569" y="341" width="261" height="287" filterUnits="userSpaceOnUse" color-interpolation-filters="sRGB">
<feFlood flood-opacity="0" result="BackgroundImageFix"/>
<feBlend mode="normal" in="SourceGraphic" in2="BackgroundImageFix" result="shape"/>
<feGaussianBlur stdDeviation="12" result="effect1_foregroundBlur_91_19"/>
</filter>
</defs>
</svg>
