<svg width="1440" height="1766" viewBox="0 0 1440 1766" fill="none" xmlns="http://www.w3.org/2000/svg">
<path d="M1197.96 799.279L1191.99 786.341L1200.9 777L1206.87 789.938L1197.96 799.279Z" fill="#A6C4A5"/>
<path d="M990.284 667.009L999.278 679.163L985.969 680.001V680.999L999.278 681.837L990.284 693.991L991.056 694.625L1000.82 683.897L1001.5 700.021H1002.5L1003.18 683.897L1012.94 694.625L1013.72 693.991L1004.72 681.837L1018.03 680.999V680.001L1004.72 679.163L1013.72 667.009L1012.94 666.375L1003.18 677.103L1002.5 660.979H1001.5L1000.82 677.103L991.056 666.375L990.284 667.009Z" stroke="#4B4B4B"/>
<path d="M188.614 1224.92L177.878 1219.95L187.423 1210.87L198.159 1215.84L188.614 1224.92Z" stroke="white"/>
<path d="M242.284 892.009L251.278 904.163L237.969 905.001V905.999L251.278 906.837L242.284 918.991L243.056 919.625L252.817 908.897L253.5 925.021H254.5L255.183 908.897L264.944 919.625L265.716 918.991L256.722 906.837L270.031 905.999V905.001L256.722 904.163L265.716 892.009L264.944 891.375L255.183 902.103L254.5 885.979H253.5L252.817 902.103L243.056 891.375L242.284 892.009Z" stroke="#4B4B4B"/>
<path d="M395 665L396.358 682.845L411 684.5L396.358 686.155L395 704L393.642 686.155L379 684.5L393.642 682.845L395 665Z" fill="#F5F8E5"/>
<path d="M195.499 632.962H194.501L193.175 650.395L178.944 652.003V652.997L193.175 654.605L194.501 672.038H195.499L196.825 654.605L211.056 652.997V652.003L196.825 650.395L195.499 632.962Z" stroke="white"/>
<path d="M452.482 820.201L462.806 810.379L474.518 815.799L464.194 825.621L452.482 820.201Z" fill="#FAFCE9"/>
<path d="M134 1129L142.66 1144H125.34L134 1129Z" fill="#FEFFEC"/>
<path d="M936.284 585.009L945.278 597.163L931.969 598.001V598.999L945.278 599.837L936.284 611.991L937.056 612.625L946.817 601.897L947.5 618.021H948.5L949.183 601.897L958.944 612.625L959.716 611.991L950.722 599.837L964.031 598.999V598.001L950.722 597.163L959.716 585.009L958.944 584.375L949.183 595.103L948.5 578.979H947.5L946.817 595.103L937.056 584.375L936.284 585.009Z" fill="#A8C6A8" stroke="#F9FBE7"/>
<path d="M419.5 1413.97L433.196 1466.14L433.252 1466.35L433.449 1466.46L470.919 1486L433.449 1505.54L433.252 1505.65L433.196 1505.86L419.5 1558.03L405.804 1505.86L405.748 1505.65L405.551 1505.54L368.081 1486L405.551 1466.46L405.748 1466.35L405.804 1466.14L419.5 1413.97Z" stroke="#4C4C4C"/>
<g filter="url(#filter0_f_91_17)">
<rect x="-22.7444" y="1069" width="248" height="411" transform="rotate(17.1591 -22.7444 1069)" fill="#FEFFEC"/>
</g>
<path d="M1119 733.096L1129.32 723.274L1141.04 728.694L1130.71 738.516L1119 733.096Z" fill="#FAFCE9"/>
<path d="M1206.61 746.919L1195.88 741.951L1205.42 732.87L1216.16 737.839L1206.61 746.919Z" stroke="white"/>
<path d="M1160.84 754.82L1149.03 755.466L1153.2 742.97L1165.01 742.324L1160.84 754.82Z" stroke="#4B4B4B"/>
<path d="M1149.54 701.612L1141.38 710.174L1135.86 698.212L1144.02 689.649L1149.54 701.612Z" stroke="#4B4B4B"/>
<g filter="url(#filter1_f_91_17)">
<ellipse cx="32.5" cy="296" rx="183.5" ry="199" fill="#4C4C4C"/>
</g>
<path d="M-4.5 0.5L139.123 126.355C154.756 140.054 159.968 162.165 152.101 181.404V181.404C142.665 204.478 152.181 230.951 174.147 242.737L246.749 281.695C283.2 301.254 273.666 355.974 232.748 362.053V362.053C195.672 367.561 182.934 414.586 212.162 438.054L289.985 500.541C385.345 577.109 512.513 601.301 629.327 565.097L770.882 521.226C824.268 504.68 882.304 513.726 928.122 545.735L1128.07 685.42C1179.91 721.634 1201.69 787.666 1181.59 847.617V847.617C1153.16 932.351 1179.36 1025.85 1247.67 1083.48L1441.5 1247" stroke="white"/>
<g filter="url(#filter2_f_91_17)">
<path d="M1187.5 309L1216.26 396.224L1294 428.5L1216.26 460.776L1187.5 548L1158.74 460.776L1081 428.5L1158.74 396.224L1187.5 309Z" fill="#FDFFEB"/>
</g>
<circle cx="1440" cy="690" r="65.5" stroke="#4B4B4B"/>
<path d="M1440 644L1442.2 683.626L1465.46 657.62L1445.32 687.653L1476 690.5L1445.32 693.347L1465.46 723.38L1442.2 697.374L1440 737L1437.8 697.374L1414.54 723.38L1434.68 693.347L1404 690.5L1434.68 687.653L1414.54 657.62L1437.8 683.626L1440 644Z" fill="#4B4B4B"/>
<path d="M130 1414.1L140.324 1404.27L152.037 1409.69L141.713 1419.52L130 1414.1Z" fill="#A6C4A5"/>
<path d="M152 1323.32L162.324 1313.5L174.037 1318.92L163.713 1328.74L152 1323.32Z" fill="#FAFCE9"/>
<path d="M189.52 1362.84L177.707 1363.48L181.881 1350.99L193.694 1350.34L189.52 1362.84Z" stroke="#4B4B4B"/>
<path d="M29.2702 1314.84L21.1068 1323.4L15.5866 1311.44L23.75 1302.88L29.2702 1314.84Z" stroke="#4B4B4B"/>
<path d="M28.9611 1163.28L22.9902 1150.34L31.8958 1141L37.8666 1153.94L28.9611 1163.28Z" fill="#A6C4A5"/>
<path d="M68 245L75.7216 291.833L120 300L75.7216 308.167L68 355L60.2784 308.167L16 300L60.2784 291.833L68 245Z" fill="#FDFFEB"/>
<path d="M119.228 291.914L119.285 292.261L119.631 292.325L161.243 300L119.631 307.675L119.285 307.739L119.228 308.086L112 351.926L104.772 308.086L104.715 307.739L104.369 307.675L62.7565 300L104.369 292.325L104.715 292.261L104.772 291.914L112 248.074L119.228 291.914Z" fill="#4C4C4C" stroke="#FDFFEB"/>
<path d="M1243 222L1251.66 237H1234.34L1243 222Z" fill="#FEFFEC"/>
<path d="M1246 230L1254.66 245H1237.34L1246 230Z" fill="#A9C7A8"/>
<path d="M1312.12 212.187L1304.81 227.891L1294.86 213.711L1312.12 212.187Z" fill="#4C4C4C"/>
<path d="M1214.3 168.322L1229.08 163.375L1225.97 178.65L1214.3 168.322Z" stroke="#4C4C4C"/>
<path d="M1176.3 242.322L1191.08 237.375L1187.97 252.65L1176.3 242.322Z" stroke="white"/>
<path d="M78.116 1404.19L70.8093 1419.89L60.8627 1405.71L78.116 1404.19Z" fill="#4C4C4C"/>
<path d="M294.296 1272.32L309.079 1267.37L305.972 1282.65L294.296 1272.32Z" stroke="#4C4C4C"/>
<path d="M259.296 1348.32L274.079 1343.37L270.972 1358.65L259.296 1348.32Z" stroke="white"/>
<g filter="url(#filter3_f_91_17)">
<path d="M1394.5 1503L1410.07 1580.33L1469.81 1538L1432.08 1605.03L1501 1622.5L1432.08 1639.97L1469.81 1707L1410.07 1664.67L1394.5 1742L1378.93 1664.67L1319.19 1707L1356.92 1639.97L1288 1622.5L1356.92 1605.03L1319.19 1538L1378.93 1580.33L1394.5 1503Z" fill="white"/>
</g>
<path d="M1321.19 1585.67L1346.29 1619.65L1308.97 1622V1623L1346.29 1625.35L1321.19 1659.33L1321.96 1659.96L1349.58 1629.56L1351.5 1675.02H1352.5L1354.42 1629.56L1382.04 1659.96L1382.81 1659.33L1357.71 1625.35L1395.03 1623V1622L1357.71 1619.65L1382.81 1585.67L1382.04 1585.04L1354.42 1615.44L1352.5 1569.98H1351.5L1349.58 1615.44L1321.96 1585.04L1321.19 1585.67Z" stroke="#A7C5A6"/>
<path d="M848.5 880L862.68 934.013L901 954L862.68 973.987L848.5 1028L834.32 973.987L796 954L834.32 934.013L848.5 880Z" fill="#FEFFEC"/>
<path d="M863.5 880L877.68 934.013L916 954L877.68 973.987L863.5 1028L849.32 973.987L811 954L849.32 934.013L863.5 880Z" fill="#9FBE9F"/>
<defs>
<filter id="filter0_f_91_17" x="-189" y="1024" width="448.217" height="555.873" filterUnits="userSpaceOnUse" color-interpolation-filters="sRGB">
<feFlood flood-opacity="0" result="BackgroundImageFix"/>
<feBlend mode="normal" in="SourceGraphic" in2="BackgroundImageFix" result="shape"/>
<feGaussianBlur stdDeviation="22.5" result="effect1_foregroundBlur_91_17"/>
</filter>
<filter id="filter1_f_91_17" x="-212" y="36" width="489" height="520" filterUnits="userSpaceOnUse" color-interpolation-filters="sRGB">
<feFlood flood-opacity="0" result="BackgroundImageFix"/>
<feBlend mode="normal" in="SourceGraphic" in2="BackgroundImageFix" result="shape"/>
<feGaussianBlur stdDeviation="30.5" result="effect1_foregroundBlur_91_17"/>
</filter>
<filter id="filter2_f_91_17" x="1057" y="285" width="261" height="287" filterUnits="userSpaceOnUse" color-interpolation-filters="sRGB">
<feFlood flood-opacity="0" result="BackgroundImageFix"/>
<feBlend mode="normal" in="SourceGraphic" in2="BackgroundImageFix" result="shape"/>
<feGaussianBlur stdDeviation="12" result="effect1_foregroundBlur_91_17"/>
</filter>
<filter id="filter3_f_91_17" x="1264" y="1479" width="261" height="287" filterUnits="userSpaceOnUse" color-interpolation-filters="sRGB">
<feFlood flood-opacity="0" result="BackgroundImageFix"/>
<feBlend mode="normal" in="SourceGraphic" in2="BackgroundImageFix" result="shape"/>
<feGaussianBlur stdDeviation="12" result="effect1_foregroundBlur_91_17"/>
</filter>
</defs>
</svg>
