<svg width="1440" height="1406" viewBox="0 0 1440 1406" fill="none" xmlns="http://www.w3.org/2000/svg">
<circle cx="1006" cy="793" r="20.5" stroke="#FAFCE9"/>
<ellipse cx="1026.02" cy="839.823" rx="9.12953" ry="9.55515" transform="rotate(-12.7829 1026.02 839.823)" fill="#4B4B4B"/>
<g filter="url(#filter0_f_91_14)">
<path d="M1131.32 1089.63L1416.46 822.43L1512.28 1176.63L1131.32 1089.63Z" fill="#5F675F"/>
</g>
<circle cx="1386" cy="869" r="65.5" stroke="white"/>
<path d="M1386 823L1390.07 864.239L1422 869.5L1390.07 874.761L1386 916L1381.93 874.761L1350 869.5L1381.93 864.239L1386 823Z" fill="white"/>
<circle cx="84" cy="964" r="65.5" stroke="#4C4D4C"/>
<path d="M84 918L88.0729 959.239L120 964.5L88.0729 969.761L84 1011L79.9271 969.761L48 964.5L79.9271 959.239L84 918Z" fill="#4C4D4C"/>
<circle cx="216" cy="1340" r="65.5" stroke="#FCFEEB"/>
<path d="M216 1294L218.204 1333.63L241.456 1307.62L221.322 1337.65L252 1340.5L221.322 1343.35L241.456 1373.38L218.204 1347.37L216 1387L213.796 1347.37L190.544 1373.38L210.678 1343.35L180 1340.5L210.678 1337.65L190.544 1307.62L213.796 1333.63L216 1294Z" fill="#FCFEEB"/>
<path d="M1183.19 1064.67L1208.29 1098.65L1170.97 1101V1102L1208.29 1104.35L1183.19 1138.33L1183.96 1138.96L1211.58 1108.56L1213.5 1154.02H1214.5L1216.42 1108.56L1244.04 1138.96L1244.81 1138.33L1219.71 1104.35L1257.03 1102V1101L1219.71 1098.65L1244.81 1064.67L1244.04 1064.04L1216.42 1094.44L1214.5 1048.98H1213.5L1211.58 1094.44L1183.96 1064.04L1183.19 1064.67Z" stroke="#A4C2A3"/>
<ellipse cx="1228.06" cy="941.43" rx="12.7402" ry="11.9064" transform="rotate(-12.7829 1228.06 941.43)" fill="#4B4B4B"/>
<path d="M1267.53 944.083C1268.1 946.581 1266.62 949.005 1264.29 949.534C1261.96 950.064 1259.58 948.515 1259.01 946.017C1258.44 943.519 1259.92 941.095 1262.25 940.566C1264.59 940.036 1266.97 941.585 1267.53 944.083Z" stroke="#4B4B4B"/>
<path d="M1140.16 929.158C1140.61 931.144 1139.44 933.065 1137.59 933.483C1135.75 933.902 1133.86 932.678 1133.41 930.691C1132.95 928.704 1134.13 926.784 1135.98 926.365C1137.82 925.946 1139.71 927.171 1140.16 929.158Z" stroke="white"/>
<ellipse cx="1175.78" cy="870.924" rx="3.96489" ry="4.14974" transform="rotate(-12.7829 1175.78 870.924)" fill="#FEFFEC"/>
<ellipse cx="1265.78" cy="985.924" rx="3.96489" ry="4.14974" transform="rotate(-12.7829 1265.78 985.924)" fill="#A9C7A8"/>
<ellipse cx="1060.31" cy="869.434" rx="3.56999" ry="3.73643" transform="rotate(-12.7829 1060.31 869.434)" fill="#FEFFEC"/>
<path d="M1297.7 975.754C1298.1 977.519 1297.05 979.219 1295.42 979.59C1293.78 979.96 1292.11 978.877 1291.71 977.113C1291.31 975.349 1292.35 973.648 1293.99 973.277C1295.62 972.907 1297.29 973.99 1297.7 975.754Z" stroke="#FEFFEC"/>
<ellipse cx="1111.31" cy="864.434" rx="3.56999" ry="3.73643" transform="rotate(-12.7829 1111.31 864.434)" fill="#4B4B4B"/>
<path d="M-93.4999 760.5V760.5C60.0407 662.132 234.444 601.005 415.799 581.994L644.393 558.032C650.417 557.4 654.581 563.913 651.479 569.116V569.116C634.985 596.785 623.173 626.989 616.522 658.508L605.325 711.572C601.349 730.415 621.586 745.053 638.238 735.379L646.475 730.593C770.116 658.756 903.06 604.287 1041.56 568.721L1204.32 526.926L1186.06 542.212C1146.12 575.665 1179.62 651.819 1231.65 649.122C1259.66 647.671 1277.88 647.962 1274.83 651.095C1263 663.23 1218.59 706.509 1231.61 708.781C1242.03 710.599 1400.99 573.169 1479.16 504.227" stroke="white"/>
<circle cx="277" cy="493" r="65.5" stroke="white"/>
<path d="M277 447L281.073 488.239L313 493.5L281.073 498.761L277 540L272.927 498.761L241 493.5L272.927 488.239L277 447Z" fill="white"/>
<g filter="url(#filter1_f_91_14)">
<path d="M1165 24L1182.83 112.654L1251.27 64.1264L1208.05 140.974L1287 161L1208.05 181.026L1251.27 257.874L1182.83 209.346L1165 298L1147.17 209.346L1078.73 257.874L1121.95 181.026L1043 161L1121.95 140.974L1078.73 64.1264L1147.17 112.654L1165 24Z" fill="#FEFFEC"/>
</g>
<g filter="url(#filter2_f_91_14)">
<path d="M699.5 365L728.265 452.224L806 484.5L728.265 516.776L699.5 604L670.735 516.776L593 484.5L670.735 452.224L699.5 365Z" fill="#4B4B4B"/>
</g>
<path d="M668.406 442L650.882 497.228L611 513.336L650.882 530.019L668.406 591L683.513 530.019L724 513.336L683.513 497.228L668.406 442Z" stroke="#A9C7A8"/>
<path d="M467.046 213.337C467.016 234.029 448.38 252.9 417.883 266.609C387.433 280.298 345.346 288.744 298.845 288.676C252.344 288.608 210.282 280.04 179.871 266.262C149.414 252.463 130.834 233.537 130.864 212.846C130.895 192.154 149.53 173.283 180.027 159.573C210.478 145.884 252.565 137.439 299.066 137.507C345.566 137.574 387.629 146.143 418.039 159.921C448.496 173.72 467.076 192.645 467.046 213.337Z" stroke="white"/>
<path d="M448.509 279.411C440.213 298.367 415.589 308.22 382.155 308.602C348.771 308.983 306.815 299.908 264.215 281.265C221.615 262.621 186.48 237.959 164.108 213.178C141.702 188.359 132.232 163.585 140.528 144.629C148.824 125.673 173.447 115.821 206.882 115.439C240.266 115.058 282.222 124.133 324.822 142.776C367.422 161.419 402.556 186.081 424.928 210.863C447.334 235.682 456.804 260.455 448.509 279.411Z" stroke="#4B4B4B"/>
<path d="M1132.5 92.9531L1130.02 119.373L1110.7 102.58L1109.98 103.263L1125.84 123.858L1100.95 126.503L1100.95 127.497L1125.84 130.139L1109.98 150.736L1110.7 151.419L1130.02 134.628L1132.5 161.047L1133.5 161.047L1135.98 134.628L1155.3 151.419L1156.02 150.736L1140.16 130.139L1165.05 127.497L1165.05 126.503L1140.16 123.858L1156.02 103.263L1155.3 102.58L1135.98 119.373L1133.5 92.9532L1132.5 92.9531Z" stroke="#A9C7A8"/>
<circle cx="765" cy="71" r="65.5" stroke="#4B4B4B"/>
<path d="M765 25L767.204 64.6263L790.456 38.6195L770.322 68.6528L801 71.5L770.322 74.3472L790.456 104.38L767.204 78.3737L765 118L762.796 78.3737L739.544 104.38L759.678 74.3472L729 71.5L759.678 68.6528L739.544 38.6195L762.796 64.6263L765 25Z" fill="#4B4B4B"/>
<circle cx="273" cy="489" r="65.5" stroke="#A9C7A8"/>
<path d="M273 443L277.073 484.239L309 489.5L277.073 494.761L273 536L268.927 494.761L237 489.5L268.927 484.239L273 443Z" fill="#A9C7A8"/>
<defs>
<filter id="filter0_f_91_14" x="1098.32" y="789.43" width="446.959" height="420.195" filterUnits="userSpaceOnUse" color-interpolation-filters="sRGB">
<feFlood flood-opacity="0" result="BackgroundImageFix"/>
<feBlend mode="normal" in="SourceGraphic" in2="BackgroundImageFix" result="shape"/>
<feGaussianBlur stdDeviation="16.5" result="effect1_foregroundBlur_91_14"/>
</filter>
<filter id="filter1_f_91_14" x="1019" y="0" width="292" height="322" filterUnits="userSpaceOnUse" color-interpolation-filters="sRGB">
<feFlood flood-opacity="0" result="BackgroundImageFix"/>
<feBlend mode="normal" in="SourceGraphic" in2="BackgroundImageFix" result="shape"/>
<feGaussianBlur stdDeviation="12" result="effect1_foregroundBlur_91_14"/>
</filter>
<filter id="filter2_f_91_14" x="569" y="341" width="261" height="287" filterUnits="userSpaceOnUse" color-interpolation-filters="sRGB">
<feFlood flood-opacity="0" result="BackgroundImageFix"/>
<feBlend mode="normal" in="SourceGraphic" in2="BackgroundImageFix" result="shape"/>
<feGaussianBlur stdDeviation="12" result="effect1_foregroundBlur_91_14"/>
</filter>
</defs>
</svg>
