<svg width="348" height="248" viewBox="0 0 348 248" fill="none" xmlns="http://www.w3.org/2000/svg">
<path fill-rule="evenodd" clip-rule="evenodd" d="M288.965 37.9474C293.967 39.2761 298.518 40.9055 302.562 42.8293C312.798 47.6985 319.711 54.4128 322.58 62.849C325.449 71.2852 324.063 80.8218 318.918 90.9218C313.771 101.026 304.897 111.615 292.948 122.06C269.053 142.946 233.017 163.118 190.498 177.578C147.98 192.037 107.117 198.017 75.4433 196.029C59.6038 195.035 46.114 192.051 35.8742 187.18C25.6384 182.311 18.7256 175.597 15.8566 167.16C12.9876 158.724 14.3737 149.188 19.5188 139.088C23.8002 130.683 30.6603 121.943 39.7242 113.229C39.633 112.854 39.5435 112.478 39.4555 112.101C19.0786 131.543 9.40816 151.305 14.9099 167.482C26.8403 202.563 105.598 207.507 190.82 178.524C276.042 149.542 335.457 97.6079 323.527 62.527C319.314 50.1386 306.767 41.5085 288.544 36.8036C288.686 37.184 288.826 37.5653 288.965 37.9474Z" fill="#4B4B4B"/>
<path fill-rule="evenodd" clip-rule="evenodd" d="M36.143 84.2671C31.6595 87.0836 27.7151 90.0565 24.3635 93.1621C16.0133 100.899 11.4034 109.398 11.187 118.323C10.9706 127.247 15.1636 135.941 23.1298 144.041C31.0989 152.145 42.7865 159.588 57.3788 165.967C86.5587 178.722 127.163 187.136 172.265 188.139C217.368 189.142 258.336 182.542 288.102 171.097C302.988 165.373 315.024 158.457 323.377 150.717C331.727 142.98 336.337 134.481 336.554 125.557C336.77 116.632 332.577 107.938 324.611 99.8377C318.097 93.2141 309.098 87.0311 298.059 81.5103C298.059 81.1368 298.057 80.7632 298.054 80.3894C323.028 92.7769 337.965 108.614 337.553 125.579C336.653 162.692 262.64 191.149 172.241 189.139C81.8412 187.129 9.28734 155.413 10.1872 118.3C10.5059 105.158 19.9924 93.1016 36.1279 83.0988C36.1312 83.4881 36.1362 83.8775 36.143 84.2671Z" fill="#4B4B4B"/>
</svg>
