<svg width="201" height="330" viewBox="0 0 201 330" fill="none" xmlns="http://www.w3.org/2000/svg">
<path d="M-6.69034 7.12544L2.3542 19.2418L-10.9512 20.1357L-10.947 21.1337L2.36549 21.9153L-6.57639 34.1076L-5.80196 34.7382L3.91368 23.9693L4.66506 40.0901L5.66416 40.0859L6.27936 23.9593L16.0856 34.6458L16.8547 34.0086L7.81015 21.8923L21.1155 20.9983L21.1113 20.0003L7.79886 19.2188L16.7407 7.02649L15.9663 6.39585L6.25066 17.1648L5.49928 1.04392L4.50019 1.04814L3.88499 17.1747L-5.92127 6.48829L-6.69034 7.12544Z" stroke="#4B4B4B"/>
<g filter="url(#filter0_f_1_386)">
<circle cx="18.1002" cy="163.262" r="130.5" transform="rotate(-0.241962 18.1002 163.262)" fill="#A9C7A8"/>
</g>
<path fill-rule="evenodd" clip-rule="evenodd" d="M140.375 118.193C145.384 119.501 149.941 121.111 153.994 123.017C164.25 127.843 171.191 134.528 174.096 142.952C177 151.376 175.654 160.919 170.552 171.04C165.448 181.166 156.619 191.792 144.714 202.288C120.907 223.274 84.9568 243.598 42.4997 258.238C0.0425519 272.877 -40.7942 279.029 -72.4763 277.175C-88.3199 276.248 -101.822 273.321 -112.082 268.493C-122.339 263.667 -129.28 256.982 -132.184 248.558C-135.089 240.134 -133.743 230.592 -128.641 220.47C-124.395 212.048 -117.572 203.278 -108.545 194.526C-108.638 194.151 -108.729 193.776 -108.818 193.4C-129.113 212.928 -138.7 232.73 -133.13 248.884C-121.051 283.914 -42.2733 288.525 42.8256 259.183C127.925 229.841 187.119 177.657 175.041 142.626C170.776 130.256 158.192 121.679 139.95 117.051C140.094 117.431 140.235 117.811 140.375 118.193Z" fill="#4B4B4B"/>
<path fill-rule="evenodd" clip-rule="evenodd" d="M-112.454 165.711C-116.841 168.507 -120.703 171.453 -123.99 174.524C-132.307 182.297 -136.881 190.815 -137.06 199.74C-137.239 208.666 -133.009 217.342 -125.009 225.408C-117.006 233.478 -105.287 240.872 -90.6674 247.189C-61.434 259.821 -20.7948 268.064 24.3114 268.876C69.4177 269.688 110.357 262.915 140.076 251.345C154.937 245.558 166.943 238.591 175.264 230.816C183.581 223.044 188.155 214.526 188.334 205.6C188.513 196.675 184.283 187.998 176.283 179.932C169.625 173.219 160.396 166.973 149.064 161.426C149.037 161.042 149.009 160.656 148.979 160.271C174.404 172.599 189.677 188.502 189.334 205.618C188.591 242.735 114.699 271.504 24.2914 269.876C-66.1159 268.248 -138.803 236.839 -138.06 199.722C-137.797 186.615 -128.413 174.549 -112.4 164.494C-112.42 164.9 -112.438 165.305 -112.454 165.711Z" fill="#4B4B4B"/>
<circle cx="183.866" cy="229.219" r="9" transform="rotate(-0.241962 183.866 229.219)" fill="#4B4B4B"/>
<path d="M68.9329 238.537L85.6678 249.768L67.8891 259.261L68.9329 238.537Z" fill="#A9C7A8" stroke="#4B4B4B"/>
<path d="M115.196 67.3514L116.629 85.1909L131.278 86.7836L116.643 88.5001L115.361 106.351L113.928 88.5116L99.2785 86.9188L113.914 85.2023L115.196 67.3514Z" fill="#F5F8E5"/>
<defs>
<filter id="filter0_f_1_386" x="-139.4" y="5.76221" width="315" height="315" filterUnits="userSpaceOnUse" color-interpolation-filters="sRGB">
<feFlood flood-opacity="0" result="BackgroundImageFix"/>
<feBlend mode="normal" in="SourceGraphic" in2="BackgroundImageFix" result="shape"/>
<feGaussianBlur stdDeviation="13.5" result="effect1_foregroundBlur_1_386"/>
</filter>
</defs>
</svg>
