<svg width="306" height="493" viewBox="0 0 306 493" fill="none" xmlns="http://www.w3.org/2000/svg">
<path d="M304.938 492.495V492.495C295.318 488.976 292.531 476.706 299.686 469.376L300.113 468.938C301.741 467.27 300.387 464.48 298.069 464.727L263.894 468.362C262.134 468.55 261.209 466.331 262.582 465.212V465.212C272.121 457.439 265.039 442.069 252.932 444.27L237.175 447.135C235.329 447.47 234.447 444.952 236.099 444.063L291.21 414.388C293.276 413.276 292.069 410.129 289.789 410.684L206.337 430.998C199.367 432.695 195.834 422.943 202.275 419.782L287.372 378.016C291.595 375.943 289.396 369.547 284.79 370.51L239.438 379.995L155.715 391.698C120.047 396.684 83.8761 387.073 55.388 365.039V365.039C25.3165 341.781 23.4766 297.032 51.5372 271.384L70.9165 253.67C95.3745 231.315 113.264 202.705 122.654 170.928L123.366 168.519C133.303 134.89 120.244 98.7047 91.1212 79.1724L-25.4331 0.999991" stroke="#A7A7A7"/>
</svg>
