<svg width="78" height="88" viewBox="0 0 78 88" fill="none" xmlns="http://www.w3.org/2000/svg">
<path d="M5.5 41.5648L16.9404 48L5.5 54.4352L5.5 41.5648Z" stroke="#594D4A" stroke-width="3"/>
<path d="M72.5 41.5648L61.0596 48L72.5 54.4352V41.5648Z" stroke="#594D4A" stroke-width="3"/>
<path d="M0 48C0 47.4477 0.447715 47 1 47H4V50H1C0.447715 50 0 49.5523 0 49V48Z" fill="#594D4A"/>
<path d="M78 48C78 47.4477 77.5523 47 77 47H74V50H77C77.5523 50 78 49.5523 78 49V48Z" fill="#594D4A"/>
<circle cx="52" cy="60" r="2" fill="#594D4A"/>
<rect x="37" y="50" width="3" height="5" rx="1.5" fill="#594D4A"/>
<path d="M22.7592 40.0002V40.0002C24.9526 45.9534 24.1009 52.6027 20.4777 57.8109L18.2593 60.9998" stroke="#594D4A" stroke-width="3"/>
<path d="M55.3812 40.0002V40.0002C53.1878 45.9534 54.0395 52.6027 57.6627 57.8109L59.8811 60.9998" stroke="#594D4A" stroke-width="3"/>
<line x1="22" y1="38.5" x2="56" y2="38.5" stroke="#594D4A" stroke-width="3"/>
<path fill-rule="evenodd" clip-rule="evenodd" d="M17.0753 12.0276L16.4999 8L14.4056 1.29827C14.2044 0.654344 14.6854 0 15.3601 0H24.2613C24.7003 0 25.088 0.286323 25.2171 0.705914L26.957 6.36067C26.9854 6.45307 27.0271 6.54085 27.0807 6.62129L29.1894 9.78427L30.9999 12.5L28.0535 13.0456L26.9581 11.8067L25.5709 9.76479L24.5846 8.28539C24.3701 7.96365 24.2034 7.61251 24.0897 7.24293L22.7842 3H18.0805L19.3633 7.10518L19.4355 7.33616L19.4697 7.57574L20.0276 11.4809L20.0884 11.4696L20.0962 11.5078C20.2941 12.4782 20.4196 13.4615 20.4718 14.4496L20.4522 14.4533L17.4999 15L17.0753 12.0276Z" fill="#594D4A"/>
<path fill-rule="evenodd" clip-rule="evenodd" d="M60.924 12.0276L61.4994 8L63.5937 1.29827C63.7949 0.654344 63.3138 0 62.6392 0H53.738C53.299 0 52.9113 0.286323 52.7822 0.705914L51.0423 6.36067C51.0138 6.45307 50.9721 6.54085 50.9185 6.62129L48.8099 9.78427L46.9994 12.5L49.9458 13.0456L51.0412 11.8067L52.4284 9.76479L53.4147 8.28539C53.6292 7.96365 53.7959 7.61251 53.9096 7.24293L55.2151 3H59.9188L58.6359 7.10518L58.5638 7.33616L58.5295 7.57574L57.9717 11.4809L57.9109 11.4696L57.9031 11.5078C57.7052 12.4782 57.5797 13.4615 57.5274 14.4496L57.547 14.4533L60.4994 15L60.924 12.0276Z" fill="#594D4A"/>
<path fill-rule="evenodd" clip-rule="evenodd" d="M27.9706 12.9852L30.1503 14.9328C31.4622 16.1049 33.0254 16.9605 34.7199 17.4336L35.5296 17.6597C37.6408 18.2492 39.8764 18.223 41.9733 17.5843L43.071 17.2499C44.2007 16.9058 45.2706 16.3898 46.2432 15.72L49.8508 13.2352L48.1491 10.7645L44.5415 13.2493C43.8227 13.7444 43.0319 14.1258 42.1969 14.3801L41.0991 14.7145C39.5493 15.1866 37.8968 15.2059 36.3364 14.7702L35.5267 14.5441C34.2743 14.1944 33.1188 13.5621 32.1492 12.6957L28.9994 9.88135L27.0891 12.0193L27.9706 12.9852Z" fill="#594D4A"/>
<path fill-rule="evenodd" clip-rule="evenodd" d="M50.0287 12.9849L47.8489 14.9325C46.5371 16.1046 44.9738 16.9602 43.2794 17.4333L42.4697 17.6594C40.3585 18.2489 38.1228 18.2227 36.026 17.584L35.1004 17.3021C33.8413 16.9186 32.6575 16.3218 31.6004 15.5377L27.1064 12.2045L28.8936 9.79492L33.3876 13.1281C34.1689 13.7077 35.0439 14.1488 35.9745 14.4322L36.9002 14.7142C38.45 15.1863 40.1025 15.2056 41.6629 14.7699L42.4726 14.5438C43.725 14.1941 44.8805 13.5618 45.8501 12.6954L48.9999 9.88103L50.9102 12.019L50.0287 12.9849Z" fill="#594D4A"/>
<path fill-rule="evenodd" clip-rule="evenodd" d="M20.3376 13.1712L18.5684 12.4185L15.7225 19.1076C15.6741 19.2214 15.6342 19.3387 15.6031 19.4585L15.4787 19.9379C14.3511 24.284 14.8425 28.8919 16.8614 32.9024L18.3952 35.9493L18.4266 36.0117L18.4636 36.0708L21.7948 41.3913L24.3375 39.7993L21.0434 34.538L19.541 31.5535C17.8495 28.1933 17.4378 24.3327 18.3825 20.6914L18.4976 20.2479L20.4987 15.5443L20.4709 15.5491L20.471 15.5095C20.4722 14.7276 20.4276 13.9468 20.3376 13.1712Z" fill="#594D4A"/>
<path fill-rule="evenodd" clip-rule="evenodd" d="M57.6617 13.1712L59.4309 12.4185L62.2768 19.1076C62.3252 19.2214 62.3651 19.3387 62.3962 19.4585L62.5206 19.9379C63.6482 24.284 63.1568 28.8919 61.1379 32.9024L59.6041 35.9493L59.5727 36.0117L59.5356 36.0708L56.2045 41.3913L53.6618 39.7993L56.9558 34.538L58.4582 31.5535C60.1497 28.1933 60.5615 24.3327 59.6167 20.6914L59.5017 20.2479L57.5006 15.5443L57.5283 15.5491L57.5283 15.5095C57.527 14.7276 57.5716 13.9468 57.6617 13.1712Z" fill="#594D4A"/>
<path d="M18.5 60.5V60.5C15.5521 68.3612 14.7267 76.8601 16.1069 85.1416L16.5 87.5" stroke="#594D4A" stroke-width="3"/>
<path d="M59.6404 60.5V60.5C62.5853 68.353 63.3469 76.8573 61.8444 85.1087L61.5 87" stroke="#594D4A" stroke-width="3"/>
<path d="M15 85H63V87C63 87.5523 62.5523 88 62 88H16C15.4477 88 15 87.5523 15 87V85Z" fill="#594D4A"/>
<rect x="37" y="73" width="3" height="13" rx="1.5" fill="#594D4A"/>
<path d="M18 59C18 58.4477 18.4477 58 19 58H44C45.1046 58 46 58.8954 46 60C46 61.1046 45.1046 62 44 62H19C18.4477 62 18 61.5523 18 61V59Z" fill="#594D4A"/>
</svg>
