<svg width="81" height="77" viewBox="0 0 81 77" fill="none" xmlns="http://www.w3.org/2000/svg">
<rect x="0.145264" y="73.5" width="79" height="3" rx="1.5" fill="#594D4A"/>
<rect x="4.64526" y="36" width="17" height="15" rx="7.5" stroke="#594D4A" stroke-width="3"/>
<path fill-rule="evenodd" clip-rule="evenodd" d="M8.14037 34.0891L10.1361 36.1725C10.1796 36.2179 10.2214 36.2643 10.2614 36.3117L11.4747 35.0055L13.8828 37.2423C13.691 36.0984 13.1654 34.998 12.3025 34.0973L10.3068 32.0138C8.02036 29.6269 4.23183 29.5454 1.84489 31.8319C-0.542052 34.1183 -0.623512 37.9069 1.66294 40.2938L3.65867 42.3773C4.27488 43.0205 5.00019 43.4964 5.77776 43.8035L4.44898 42.5693L6.22798 40.654C6.08586 40.5507 5.95092 40.4334 5.8251 40.302L3.82937 38.2186C2.68904 37.0281 2.72966 35.1386 3.92011 33.9983C5.11057 32.858 7.00004 32.8986 8.14037 34.0891Z" fill="#594D4A"/>
<path d="M38.1453 31.5L34.9299 34.3134C30.3132 38.353 30.3886 45.5589 35.0889 49.5011L37.9541 51.9042C40.2866 53.8605 41.6009 56.7727 41.5249 59.816L41.2671 70.125C41.1993 72.8369 38.9814 75 36.2687 75H31.6453L33.5895 71.1115C34.2838 69.7229 34.6453 68.1918 34.6453 66.6393V61.1287C34.6453 59.7686 34.0912 58.4672 33.1108 57.5246L24.7142 49.4509C22.7534 47.5655 21.6453 44.9627 21.6453 42.2425V37.3476C21.6453 34.871 22.5642 32.4826 24.2242 30.6447L35.6453 18L47.9831 6.08757C49.3934 4.72594 51.1728 3.80884 53.1 3.45028L54.3971 3.20895C62.0137 1.79191 68.2793 9.20041 65.6174 16.4761L64.9804 18.2172C64.4316 19.7172 63.5315 21.064 62.3554 22.1447L54.8953 29L45.1453 38" stroke="#594D4A" stroke-width="3"/>
<path d="M44.1453 9.82292L47.328 8.49961L51.5743 18.6366C51.9136 19.4468 51.6847 20.3835 51.0099 20.9458L49.1452 22.4997L44.1453 9.82292Z" fill="#594D4A"/>
<rect x="48.9609" y="18.3511" width="3.23159" height="7.07858" rx="1.61579" transform="rotate(47.4905 48.9609 18.3511)" fill="#594D4A"/>
<rect x="48.0083" y="33.7832" width="3.12369" height="7.07858" rx="1.56184" transform="rotate(52.9472 48.0083 33.7832)" fill="#594D4A"/>
<rect x="39.2717" y="28.3999" width="3.01062" height="7.07858" rx="1.50531" transform="rotate(47.4905 39.2717 28.3999)" fill="#594D4A"/>
<circle cx="42.6453" cy="27" r="1.5" fill="#594D4A"/>
<path d="M45.1453 38L65.48 26.1775C66.2432 25.7337 67.1103 25.5 67.9931 25.5H69.0394C71.0623 25.5 73.0377 26.1135 74.7047 27.2596L77.8357 29.4122C78.6102 29.9447 78.2889 31.1547 77.3522 31.2328L74.1453 31.5L69.1453 32.5L45.6018 48.331C42.29 50.5579 37.9712 50.6024 34.6142 48.4443L33.1453 47.5" stroke="#594D4A" stroke-width="3"/>
</svg>
