<svg width="74" height="80" viewBox="0 0 74 80" fill="none" xmlns="http://www.w3.org/2000/svg">
<circle cx="36.4298" cy="45.5" r="5" stroke="#594D4A" stroke-width="3"/>
<circle cx="36.4298" cy="16.5" r="5" stroke="#594D4A" stroke-width="3"/>
<circle cx="36.4298" cy="30.5" r="29" stroke="#594D4A" stroke-width="3"/>
<path fill-rule="evenodd" clip-rule="evenodd" d="M40.7083 3.66389C39.3679 3.23368 37.9302 3 36.4298 3C28.8863 3 22.9298 8.90665 22.9298 16C22.9298 21.3208 26.2813 25.9738 31.14 27.9671C32.6698 28.6896 34.328 29.1186 36.0283 29.2249L37.716 29.3304C39.5101 29.4425 41.2687 29.8813 42.9052 30.6252L43.0148 30.675C40.9976 31.5273 38.7707 32 36.4298 32C27.3171 32 19.9298 24.8366 19.9298 16C19.9298 7.16344 27.3171 0 36.4298 0C41.9179 0 46.7802 2.5982 49.7799 6.59531C47.6058 5.46214 45.2795 4.6262 42.8628 4.11744L40.7083 3.66389Z" fill="#594D4A"/>
<path fill-rule="evenodd" clip-rule="evenodd" d="M32.0014 57.3361C33.3419 57.7663 34.7795 58 36.2799 58C43.8234 58 49.7799 52.0934 49.7799 45C49.7799 39.6792 46.4285 35.0262 41.5697 33.0329C40.04 32.3104 38.3817 31.8814 36.6814 31.7751L34.9938 31.6696C33.1996 31.5575 31.441 31.1187 29.8045 30.3748L29.6949 30.325C31.7121 29.4727 33.9391 29 36.2799 29C45.3926 29 52.7799 36.1634 52.7799 45C52.7799 53.8366 45.3926 61 36.2799 61C30.7918 61 25.9295 58.4018 22.9298 54.4047C25.1039 55.5379 27.4303 56.3738 29.847 56.8826L32.0014 57.3361Z" fill="#594D4A"/>
<path d="M28.654 59.5C27.3091 66.609 30.4003 73.8082 36.4299 77.738C42.4595 73.8082 45.5506 66.609 44.2057 59.5H28.654Z" stroke="#594D4A" stroke-width="3"/>
<path fill-rule="evenodd" clip-rule="evenodd" d="M18.9298 52.1492C18.9195 52.1559 18.9092 52.1627 18.8989 52.1694C18.7152 52.2901 18.5338 52.4137 18.3548 52.54C13.1223 56.2314 9.92988 62.2724 9.92981 68.7984L9.92981 69C15.7341 70.6584 21.9111 70.4989 27.6033 68.6033C28.5605 68.2845 29.504 67.9166 30.4298 67.5L28.9246 64.8858L28.6318 64.3771L26.0288 65.8686L26.0721 65.9439C21.8658 67.2395 17.3893 67.4926 13.0646 66.6653C13.6394 62.1415 16.0219 58.0496 19.6396 55.3161L19.6034 55.2528L20.0444 55.0001H18.9298V52.1492Z" fill="#594D4A"/>
<path fill-rule="evenodd" clip-rule="evenodd" d="M0.258336 53.3096C3.19875 49.0102 7.8826 46.2925 12.9864 45.8156L12.9703 48.8333C9.78875 49.1971 6.82066 50.6145 4.53996 52.8493C7.0724 54.5768 9.92511 55.7823 12.93 56.3942L12.9299 56.4052L12.9858 56.4055C13.0581 56.4201 13.1305 56.4343 13.203 56.4481L13.2035 56.4067L16.2035 56.4227L16.1989 56.8259L16.1886 57.7499L15.0352 59.7381C14.4088 59.6778 13.7863 59.5951 13.1689 59.4902C8.38751 58.6784 3.9114 56.5446 0.258336 53.3096Z" fill="#594D4A"/>
<path fill-rule="evenodd" clip-rule="evenodd" d="M54.4298 52C54.4401 52.0067 54.4504 52.0135 54.4607 52.0202C54.6444 52.141 54.8258 52.2645 55.0048 52.3908C60.2373 56.0822 63.4297 62.1232 63.4298 68.6492L63.4298 68.8508C57.6255 70.5092 51.4485 70.3497 45.7564 68.4541C44.7991 68.1353 43.8556 67.7674 42.9299 67.3509L44.435 64.7366L44.7279 64.228L47.3308 65.7194L47.2875 65.7947C51.4939 67.0903 55.9703 67.3434 60.295 66.5161C59.7202 61.9923 57.3377 57.9004 53.72 55.1669L53.7562 55.1036L53.3153 54.8509H54.4298V52Z" fill="#594D4A"/>
<path fill-rule="evenodd" clip-rule="evenodd" d="M73.2339 53.1316C70.2934 48.8323 65.6096 46.1145 60.5058 45.6376L60.5219 48.6553C63.7034 49.0191 66.6715 50.4365 68.9522 52.6714C66.4198 54.3988 63.5671 55.6044 60.5622 56.2163L60.5623 56.2273L60.5064 56.2276C60.4341 56.2421 60.3617 56.2563 60.2892 56.2701L60.2887 56.2287L57.2887 56.2447L57.2932 56.648L57.3036 57.5719L58.4569 59.5601C59.0834 59.4999 59.7059 59.4171 60.3233 59.3123C65.1047 58.5005 69.5808 56.3666 73.2339 53.1316Z" fill="#594D4A"/>
<path d="M34.9298 61H37.9298V65.5C37.9298 66.3284 37.2582 67 36.4298 67C35.6014 67 34.9298 66.3284 34.9298 65.5V61Z" fill="#594D4A"/>
<path d="M25.5001 56.9565L27.1594 59.4559L21.8386 62.9881C21.1485 63.4463 20.2175 63.2583 19.7593 62.5681C19.3011 61.8779 19.4892 60.9469 20.1794 60.4888L25.5001 56.9565Z" fill="#594D4A"/>
<path d="M47.589 57L45.9298 59.4994L51.2505 63.0316C51.9407 63.4898 52.8716 63.3017 53.3298 62.6115C53.788 61.9213 53.5999 60.9904 52.9097 60.5322L47.589 57Z" fill="#594D4A"/>
</svg>
