<svg width="79" height="35" viewBox="0 0 79 35" fill="none" xmlns="http://www.w3.org/2000/svg">
<circle cx="39.5" cy="14.5" r="1.5" fill="#594D4A"/>
<mask id="path-2-inside-1_1_210" fill="white">
<rect x="15" width="13" height="35" rx="2"/>
</mask>
<rect x="15" width="13" height="35" rx="2" stroke="#594D4A" stroke-width="6" mask="url(#path-2-inside-1_1_210)"/>
<mask id="path-3-inside-2_1_210" fill="white">
<rect width="13" height="35" rx="2" transform="matrix(-1 0 0 1 64 0)"/>
</mask>
<rect width="13" height="35" rx="2" transform="matrix(-1 0 0 1 64 0)" stroke="#594D4A" stroke-width="6" mask="url(#path-3-inside-2_1_210)"/>
<mask id="path-4-inside-3_1_210" fill="white">
<rect x="6" y="3" width="12" height="29" rx="2"/>
</mask>
<rect x="6" y="3" width="12" height="29" rx="2" stroke="#594D4A" stroke-width="6" mask="url(#path-4-inside-3_1_210)"/>
<mask id="path-5-inside-4_1_210" fill="white">
<rect width="12" height="29" rx="2" transform="matrix(-1 0 0 1 73 3)"/>
</mask>
<rect width="12" height="29" rx="2" transform="matrix(-1 0 0 1 73 3)" stroke="#594D4A" stroke-width="6" mask="url(#path-5-inside-4_1_210)"/>
<mask id="path-6-inside-5_1_210" fill="white">
<rect y="11" width="9" height="13" rx="2"/>
</mask>
<rect y="11" width="9" height="13" rx="2" stroke="#594D4A" stroke-width="6" mask="url(#path-6-inside-5_1_210)"/>
<mask id="path-7-inside-6_1_210" fill="white">
<rect width="9" height="13" rx="2" transform="matrix(-1 0 0 1 79 11)"/>
</mask>
<rect width="9" height="13" rx="2" transform="matrix(-1 0 0 1 79 11)" stroke="#594D4A" stroke-width="6" mask="url(#path-7-inside-6_1_210)"/>
<line x1="27" y1="24.5" x2="52" y2="24.5" stroke="#594D4A" stroke-width="3"/>
<path d="M28 13H32.5C33.3284 13 34 13.6716 34 14.5C34 15.3284 33.3284 16 32.5 16H28V13Z" fill="#594D4A"/>
<path d="M51 13H45.5C44.6716 13 44 13.6716 44 14.5C44 15.3284 44.6716 16 45.5 16H51V13Z" fill="#594D4A"/>
</svg>
