<svg width="253" height="519" viewBox="0 0 253 519" fill="none" xmlns="http://www.w3.org/2000/svg">
<path d="M155.883 518L71.3593 471.004C41.9015 454.626 36.7571 414.387 61.1469 391.124L147.046 309.193C152.852 303.655 157.24 296.802 159.839 289.211L175.513 243.442C185.477 214.347 166.503 188.344 137.279 197.927C100.082 210.124 58.3757 226.955 27.8592 214.593C-15.7437 196.931 31.6334 149.401 10.2481 97.2414C-0.105426 71.989 -5.74365 41.5323 11.7482 20.5821V20.5821C28.0835 1.01717 56.6673 -2.80793 77.572 11.7735L119.472 40.9994C134.952 51.7971 155.193 52.9577 171.806 44.0002L252 0.760803" stroke="#4B4B4B"/>
</svg>
