<svg width="81" height="80" viewBox="0 0 81 80" fill="none" xmlns="http://www.w3.org/2000/svg">
<path fill-rule="evenodd" clip-rule="evenodd" d="M77.914 40C77.7081 39.4174 77.1525 39 76.4994 39C75.8463 39 75.2907 39.4174 75.0847 40H72.0269C72.2756 37.75 74.1831 36 76.4994 36C78.8157 36 80.7232 37.75 80.9719 40H77.914Z" fill="#594D4A"/>
<path d="M73.4726 40C73.4723 40.5 73.9724 46.5001 69.4726 51C64.9727 55.4999 60.9726 55.5 60.9726 55.5" stroke="#594D4A" stroke-width="3"/>
<path d="M79.4725 40C79.4723 40.5 79.9727 49 73.9725 55C67.9724 61 62.4727 62 62.4727 62" stroke="#594D4A" stroke-width="3"/>
<path fill-rule="evenodd" clip-rule="evenodd" d="M47.085 13C47.2909 12.4174 47.8465 12 48.4996 12C49.1527 12 49.7084 12.4174 49.9143 13H52.9722C52.7234 10.75 50.8159 9 48.4996 9C46.1834 9 44.2758 10.75 44.0271 13H47.085Z" fill="#594D4A"/>
<circle cx="47.4727" cy="26.5" r="1.5" fill="#594D4A"/>
<path d="M45.4726 13C45.4723 13.5 45.9724 19.5001 41.4726 24C36.9727 28.4999 32.9726 28.5 32.9726 28.5" stroke="#594D4A" stroke-width="3"/>
<path fill-rule="evenodd" clip-rule="evenodd" d="M32.4457 39C33.0988 39 33.6544 39.4174 33.8603 40H36.9182C36.6695 37.75 34.762 36 32.4457 36C30.1294 36 28.2219 37.75 27.9731 40H31.031C31.237 39.4174 31.7926 39 32.4457 39Z" fill="#594D4A"/>
<path d="M35.4725 40C35.4727 40.5 34.9727 46.5001 39.4725 51C43.9723 55.4999 47.9724 55.5 47.9724 55.5" stroke="#594D4A" stroke-width="3"/>
<line x1="47.9727" y1="55.5" x2="60.9727" y2="55.5" stroke="#594D4A" stroke-width="3"/>
<line x1="19.9727" y1="28.5" x2="32.9727" y2="28.5" stroke="#594D4A" stroke-width="3"/>
<path d="M42.9727 59.5L45.4543 60.3272C45.7638 60.4304 45.9727 60.7201 45.9727 61.0464V78.5C45.9727 79.3284 45.3011 80 44.4727 80C43.6442 80 42.9727 79.3284 42.9727 78.5V59.5Z" fill="#594D4A"/>
<path d="M61.9727 60.9425C61.9727 60.6871 62.1572 60.4692 62.4091 60.4273L64.9727 60V72.5C64.9727 73.3284 64.3011 74 63.4727 74C62.6442 74 61.9727 73.3284 61.9727 72.5V60.9425Z" fill="#594D4A"/>
<circle cx="53.9727" cy="49" r="6.5" stroke="#594D4A" stroke-width="3"/>
<circle cx="26.9727" cy="22" r="6.5" stroke="#594D4A" stroke-width="3"/>
<path d="M29.4725 40C29.4728 40.5 28.9724 49 34.9725 55C40.9727 61 45.4727 62 45.4727 62" stroke="#594D4A" stroke-width="3"/>
<path fill-rule="evenodd" clip-rule="evenodd" d="M6.88718 13C6.68126 12.4174 6.12565 12 5.47254 12C4.81943 12 4.26381 12.4174 4.05789 13H1C1.24872 10.75 3.15626 9 5.47254 9C7.78881 9 9.69635 10.75 9.94507 13H6.88718Z" fill="#594D4A"/>
<path d="M8.49935 13C8.49959 13.5 7.99951 19.5001 12.4994 24C16.9992 28.4999 20.9993 28.5 20.9993 28.5" stroke="#594D4A" stroke-width="3"/>
<path d="M15.9995 32.5L18.4811 33.3272C18.7907 33.4304 18.9995 33.7201 18.9995 34.0464V51.5C18.9995 52.3284 18.3279 53 17.4995 53C16.6711 53 15.9995 52.3284 15.9995 51.5V32.5Z" fill="#594D4A"/>
<rect x="17.9727" y="50" width="14" height="3" fill="#594D4A"/>
<path d="M17.9727 52H20.9727V78.5C20.9727 79.3284 20.3011 80 19.4727 80C18.6442 80 17.9727 79.3284 17.9727 78.5V52Z" fill="#594D4A"/>
<path d="M31.9727 53H34.9727V78.5C34.9727 79.3284 34.3011 80 33.4727 80C32.6442 80 31.9727 79.3284 31.9727 78.5V53Z" fill="#594D4A"/>
<rect x="24.9727" y="59" width="3" height="21" rx="1.5" fill="#594D4A"/>
<path d="M2.4994 13C2.49963 13.5 1.99927 22 7.9994 28C13.9995 34 18.4995 35 18.4995 35" stroke="#594D4A" stroke-width="3"/>
<circle cx="63.4727" cy="78.5" r="1.5" fill="#594D4A"/>
<path d="M49.9727 13H52.9727V16.9397C52.9727 18.3021 52.7276 19.6534 52.2492 20.9291L51.9993 21.5955C51.6825 22.4403 50.8749 23 49.9727 23C49.0941 22.4143 48.7349 21.3006 49.1057 20.312L49.6936 18.744C49.8781 18.252 49.9727 17.7308 49.9727 17.2054V13Z" fill="#594D4A"/>
<path d="M34.4727 34.1154C34.4727 33.4534 34.9069 32.8697 35.5411 32.6795L38.7922 31.7041C39.2441 31.5686 39.6773 31.3772 40.0818 31.1345L43.4394 29.12C44.0265 28.7677 44.7849 28.9163 45.1957 29.464C45.6287 30.0413 45.525 30.8582 44.9614 31.309L44.4105 31.7497C42.1476 33.56 39.5065 34.8383 36.6828 35.49L36.309 35.5762C35.3695 35.793 34.4727 35.0795 34.4727 34.1154Z" fill="#594D4A"/>
<rect x="32.9727" y="9" width="3" height="5" rx="1.5" fill="#594D4A"/>
<rect x="70.9727" y="22" width="3" height="5" rx="1.5" fill="#594D4A"/>
<rect x="32.9727" width="3" height="5" rx="1.5" fill="#594D4A"/>
<rect x="70.9727" y="13" width="3" height="5" rx="1.5" fill="#594D4A"/>
<rect x="36.9727" y="9" width="3" height="5" rx="1.5" transform="rotate(-90 36.9727 9)" fill="#594D4A"/>
<rect x="74.9727" y="22" width="3" height="5" rx="1.5" transform="rotate(-90 74.9727 22)" fill="#594D4A"/>
<rect x="27.9727" y="9" width="3" height="5" rx="1.5" transform="rotate(-90 27.9727 9)" fill="#594D4A"/>
<rect x="65.9727" y="22" width="3" height="5" rx="1.5" transform="rotate(-90 65.9727 22)" fill="#594D4A"/>
</svg>
