<svg width="64" height="79" viewBox="0 0 64 79" fill="none" xmlns="http://www.w3.org/2000/svg">
<path d="M35.5 55V55C33.5097 54.7157 32.0544 52.9759 32.1262 50.9667L32.4445 42.0543C32.4705 41.3269 33.24 40.87 33.8911 41.1955L34.9969 41.7485C37.0557 42.7779 38.1497 45.0763 37.6504 47.3233V47.3233C37.5632 47.7157 37.7676 48.1147 38.1372 48.2731L48 52.5" stroke="#594D4A" stroke-width="3"/>
<path d="M26.5 55.5V55.5C29.0388 55.2179 30.932 53.0279 30.844 50.475L30.5558 42.1193C30.5302 41.3758 29.7307 40.9196 29.0776 41.2759L28.3564 41.6692C26.3262 42.7766 25.1668 45.0014 25.4222 47.2999V47.2999C25.4684 47.7157 25.237 48.1127 24.8525 48.2775L15 52.5" stroke="#594D4A" stroke-width="3"/>
<path fill-rule="evenodd" clip-rule="evenodd" d="M44.5222 51.8839L44.5071 51.9185L44.7262 51.799L44.5222 51.8839ZM52.2263 47.0393L52.2277 47.0384L53.852 50.7094C54.5006 52.1755 54.468 53.8534 53.7628 55.2931C53.3708 56.0933 52.7878 56.7847 52.0654 57.3063L51.868 57.4488C49.9996 58.7975 47.5505 59.038 45.4555 58.0783L41.2355 56.1451L35.1754 53.5028L35.1348 53.5244L33.9215 54.1666C33.1989 54.5491 33.2158 55.5901 33.9505 55.9489L35.184 56.5514L35.5075 56.7094L35.5193 56.7152L39.1842 58.5053L44.206 60.8057C47.2829 62.2152 50.88 61.8621 53.624 59.8812L53.8213 59.7387C54.9431 58.9289 55.8483 57.8553 56.4569 56.6128C57.5519 54.3773 57.6026 51.772 56.5954 49.4955L54.7365 45.2942L53.5002 42.5L51.0467 44.2057L52.2263 47.0393Z" fill="#594D4A"/>
<path fill-rule="evenodd" clip-rule="evenodd" d="M9.44295 63.1787L16.0505 64.5003L33.0505 67.0003V76.0003V79.0003H30.0505H25.0505V76.0003L30.0505 76.0003V69.5913L15.6141 67.4683L15.5378 67.4571L15.4622 67.442L8.85461 66.1205C6.05352 65.5603 3.37016 67.5062 3.03112 70.3412C2.70122 73.3612 5.06654 76.0003 8.10592 76.0003L12.0505 76.0003V79.0003H8.10592C3.27527 79.0003 -0.482923 74.8014 0.0505329 70.0003C0.589345 65.4204 4.92102 62.2744 9.44295 63.1787Z" fill="#594D4A"/>
<path fill-rule="evenodd" clip-rule="evenodd" d="M47.0505 64.4768L53.6581 63.1553C58.1801 62.2509 62.5117 65.3969 63.0505 69.9768C63.584 74.7779 59.8258 78.9768 54.9952 78.9768H33.0505H30.0505V75.9768V66.9768L47.0505 64.4768ZM33.0505 69.5679L47.487 67.4449L47.5633 67.4337L47.6389 67.4186L54.2465 66.097C57.0476 65.5368 59.7309 67.4828 60.07 70.3178C60.3999 73.3377 58.0345 75.9768 54.9952 75.9768H33.0505V69.5679Z" fill="#594D4A"/>
<path fill-rule="evenodd" clip-rule="evenodd" d="M49.4624 72.3142C49.7786 75.9078 46.9466 78.9999 43.3391 78.9999H33.0507H30.0507V75.9999V67.4999L38.5504 67L42.6728 66.7939C46.0147 66.6268 48.9441 69.0085 49.4624 72.3142ZM38.7134 69.9956L42.8226 69.7902C44.5976 69.7014 46.1576 70.9406 46.4812 72.6774C46.5829 74.474 45.1524 75.9999 43.3391 75.9999H33.0507V70.3287L38.7134 69.9956Z" fill="#594D4A"/>
<circle cx="18.5505" cy="77.5" r="1.5" fill="#594D4A"/>
<circle cx="12.5505" cy="77.5" r="1.5" fill="#594D4A"/>
<circle cx="25.5505" cy="77.5" r="1.5" fill="#594D4A"/>
<path fill-rule="evenodd" clip-rule="evenodd" d="M10.3376 47.5689L9.40783 49.6384C8.75134 51.0996 8.77922 52.7772 9.4839 54.2158C9.87293 55.0101 10.4515 55.6963 11.1686 56.2139L11.3742 56.3623C13.2425 57.7111 15.6917 57.9516 17.7867 56.9919L21.7375 55.182L28.0729 52.4197L28.1074 52.4379L29.3206 53.0802C30.0433 53.4627 30.0263 54.5037 29.2917 54.8625L28.0582 55.465L27.7346 55.623L27.7229 55.6288L24.0579 57.4188L19.0361 59.7193C15.9593 61.1288 12.3622 60.7757 9.61819 58.7947L9.41262 58.6463C8.29624 57.8404 7.39544 56.772 6.78975 55.5355C5.69264 53.2958 5.64924 50.6839 6.67132 48.4089L8.31268 44.7556L9.55068 42L12.1418 43.5531L12.2021 43.5892L10.919 46.3178L10.9038 46.3086L10.4852 47.2404L10.3319 47.5663L10.3376 47.5689Z" fill="#594D4A"/>
<path d="M10.0505 44.5L11.4275 41.5493C12.8289 38.5464 14.8133 35.8521 17.2653 33.623L17.3985 33.5018C18.4865 32.5128 19.7791 31.7758 21.1844 31.3434L25.5505 30L28.5293 30.8124C30.1824 31.2632 31.9235 31.2817 33.5858 30.8662L37.0505 30L39.9745 30.5848C41.3434 30.8586 42.6397 31.4159 43.7802 32.2209L44.478 32.7135C48.4297 35.503 51.4236 39.4447 53.0505 44V44" stroke="#594D4A" stroke-width="3"/>
<path fill-rule="evenodd" clip-rule="evenodd" d="M38.0505 24.5635C39.9101 22.9032 41.0505 20.5498 41.0505 18C41.0505 13.1437 36.9138 9 31.5505 9C26.1872 9 22.0505 13.1437 22.0505 18C22.0505 20.5498 23.1909 22.9032 25.0505 24.5635V28.252C21.4526 26.1452 19.0505 22.3419 19.0505 18C19.0505 11.3726 24.647 6 31.5505 6C38.4541 6 44.0505 11.3726 44.0505 18C44.0505 22.3419 41.6485 26.1452 38.0505 28.252V24.5635Z" fill="#594D4A"/>
<path fill-rule="evenodd" clip-rule="evenodd" d="M35.0505 6C35.0505 7.43528 33.7141 9 31.5505 9C29.3869 9 28.0505 7.43528 28.0505 6C28.0505 4.56472 29.3869 3 31.5505 3C33.7141 3 35.0505 4.56472 35.0505 6ZM36.2187 10.1752C37.3526 9.09512 38.0505 7.6228 38.0505 6C38.0505 2.68629 35.1404 0 31.5505 0C27.9607 0 25.0505 2.68629 25.0505 6C25.0505 7.6228 25.7485 9.09512 26.8824 10.1752C28.2611 9.427 29.8539 9 31.5505 9C33.2472 9 34.84 9.427 36.2187 10.1752Z" fill="#594D4A"/>
<path d="M23.5505 18.4405C26.8386 18.1795 30.01 17.0635 32.7451 15.1934C35.1604 16.1651 37.3228 17.6694 39.0722 19.5918L39.1795 22.3822C39.35 26.8142 35.8032 30.5 31.3679 30.5C27.0505 30.5 23.5505 27 23.5505 22.6826V18.4405Z" stroke="#594D4A" stroke-width="3"/>
<rect x="13.0273" y="50.6895" width="5" height="3.06641" rx="1.53321" transform="rotate(-20.5061 13.0273 50.6895)" fill="#594D4A"/>
<rect width="5" height="3.23466" rx="1.61733" transform="matrix(-0.936635 -0.350307 -0.350307 0.936635 49.8884 50.5361)" fill="#594D4A"/>
<line x1="10.8223" y1="43.7138" x2="20.8223" y2="49.7138" stroke="#594D4A" stroke-width="3"/>
<line y1="-1.5" x2="11.6619" y2="-1.5" transform="matrix(-0.857493 0.514496 0.514496 0.857493 53.0505 45)" stroke="#594D4A" stroke-width="3"/>
<rect x="18.6082" y="42.0752" width="3.21419" height="6" rx="1.60709" transform="rotate(11.3792 18.6082 42.0752)" fill="#594D4A"/>
<rect width="3.21419" height="6" rx="1.60709" transform="matrix(-0.980343 0.197302 0.197302 0.980343 44.2017 42)" fill="#594D4A"/>
<line x1="23.0505" y1="57.5" x2="40.0505" y2="57.5" stroke="#594D4A" stroke-width="3"/>
<path d="M22.5505 57V57C21.2663 60.5316 18.6772 63.4367 15.316 65.1173L14.5505 65.5" stroke="#594D4A" stroke-width="3"/>
<path d="M40.8005 57V57C42.0848 60.5316 44.6739 63.4367 48.035 65.1173L48.8005 65.5" stroke="#594D4A" stroke-width="3"/>
</svg>
