<svg width="68" height="41" viewBox="0 0 68 41" fill="none" xmlns="http://www.w3.org/2000/svg">
<path fill-rule="evenodd" clip-rule="evenodd" d="M66.3993 2.84722C66.9036 1.24139 66.3993 0.0740273 64.168 0.0740273H56.7489C54.8775 0.0740273 54.0133 1.09618 53.509 2.18951C53.509 2.18951 49.6925 11.5284 44.363 17.583C42.6346 19.3341 41.8427 19.9177 40.9063 19.9177C40.402 19.9177 39.7531 19.3341 39.7531 17.7297V2.77177C39.7531 0.875521 39.178 0 37.5927 0H25.925C24.7719 0 24.0522 0.875521 24.0522 1.75104C24.0522 3.57469 26.717 4.01316 27.0045 9.11965V20.2153C27.0045 22.6226 26.5795 23.0625 25.636 23.0625C23.1158 23.0625 16.9944 13.651 13.3224 2.92694C12.6084 0.802916 11.883 0 10.0102 0H2.52025C0.359834 0 0 1.02073 0 2.11549C0 4.08576 2.52025 14.0069 11.7385 27.1383C17.8599 36.107 26.5739 40.9274 34.4236 40.9274C39.178 40.9274 39.7531 39.8326 39.7531 38.009V31.2241C39.7531 29.036 40.1852 28.6715 41.6982 28.6715C42.7777 28.6715 44.7228 29.2538 49.1159 33.5588C54.1564 38.6653 55.0206 41 57.8298 41H65.2475C67.4079 41 68.4166 39.9052 67.84 37.7898C67.1926 35.6743 64.7432 32.6107 61.5741 28.9634C59.8457 26.9219 57.2532 24.6598 56.4613 23.565C55.3818 22.1058 55.6694 21.5222 56.4613 20.2096C56.3891 20.2096 65.4643 7.2234 66.3993 2.84153" fill="#FDFEEB"/>
</svg>
