<svg width="681" height="694" viewBox="0 0 681 694" fill="none" xmlns="http://www.w3.org/2000/svg">
<g filter="url(#filter0_f_59_19)">
<ellipse cx="340.5" cy="347" rx="214.5" ry="221" fill="#B2CFB1"/>
</g>
<path d="M341.005 435L331.235 466.876L309 476.174L331.235 485.803L341.005 521L349.428 485.803L372 476.174L349.428 466.876L341.005 435Z" stroke="white"/>
<path d="M255.456 408L249.212 428.374L235 434.316L249.212 440.471L255.456 462.967L260.839 440.471L275.266 434.316L260.839 428.374L255.456 408Z" stroke="white"/>
<path d="M238.281 302.322L244.853 295.828C256.94 283.885 274.265 278.898 290.851 282.587L341.837 293.927C350.799 295.921 359.967 291.551 364.063 283.335V283.335C369.349 272.73 364.301 259.881 353.209 255.711L329.131 246.659M211.115 369.788L228.395 367.491C240.277 365.912 248.728 355.14 247.435 343.224V343.224C246.109 331.002 255.021 320.051 267.257 318.867L283.173 317.326C298.441 315.848 311.311 305.309 315.771 290.632L329.131 246.659M329.131 246.659L305.907 242.317C301.583 241.508 297.172 241.274 292.787 241.62L271.887 243.268C254.007 244.678 237.39 233.959 231.304 217.087L228.823 210.209C222.732 193.323 231.483 174.695 248.369 168.604V168.604C253.605 166.715 259.239 166.202 264.73 167.115L287.421 170.888C296.563 172.408 305.656 167.93 310.026 159.758L310.738 158.424C323.631 134.312 357.901 133.491 371.934 156.958V156.958C379.449 169.527 378.389 185.438 369.272 196.899L348.082 223.535L329.131 246.659Z" stroke="white"/>
<defs>
<filter id="filter0_f_59_19" x="0" y="0" width="681" height="694" filterUnits="userSpaceOnUse" color-interpolation-filters="sRGB">
<feFlood flood-opacity="0" result="BackgroundImageFix"/>
<feBlend mode="normal" in="SourceGraphic" in2="BackgroundImageFix" result="shape"/>
<feGaussianBlur stdDeviation="63" result="effect1_foregroundBlur_59_19"/>
</filter>
</defs>
</svg>
