<svg width="149" height="36" viewBox="0 0 149 36" fill="none" xmlns="http://www.w3.org/2000/svg">
<path d="M84.9994 19.6729L86.334 22.5429C86.334 22.5429 92.3338 23.8169 92.3338 26.8471C92.3338 29 89.6645 29 89.6645 29H82.5556L79.0556 27.0555" stroke="#4B4B4B" stroke-width="1.5" stroke-linecap="round" stroke-linejoin="round"/>
<path d="M77.0007 19.6729L75.6676 22.5429C75.6676 22.5429 69.6663 23.8169 69.6663 26.8471C69.6663 29 72.3356 29 72.3356 29H75.5556L79.0556 27.0555L83.3334 24.3333" stroke="#4B4B4B" stroke-width="1.5" stroke-linecap="round" stroke-linejoin="round"/>
<path d="M67 21.1071C67 21.1071 70.3336 20.39 72.334 19.6729C74.3329 9.62711 80.3311 10.3442 81 10.3442C81.6673 10.3442 87.6671 9.62711 89.666 19.6729C91.6664 20.3884 95 21.1071 95 21.1071M81 7.22222C81.8251 7.22222 82.6164 6.89445 83.1999 6.311C83.7833 5.72755 84.1111 4.93623 84.1111 4.11111C84.1111 3.28599 83.7833 2.49467 83.1999 1.91122C82.6164 1.32778 81.8251 1 81 1C80.1749 1 79.3836 1.32778 78.8001 1.91122C78.2167 2.49467 77.8889 3.28599 77.8889 4.11111C77.8889 4.93623 78.2167 5.72755 78.8001 6.311C79.3836 6.89445 80.1749 7.22222 81 7.22222Z" stroke="#4B4B4B" stroke-width="1.5" stroke-linecap="round" stroke-linejoin="round"/>
<path d="M1.92 8.2H9.672C10.52 8.2 11.288 8.312 11.976 8.536C12.68 8.76 13.272 9.08 13.752 9.496C14.248 9.896 14.632 10.392 14.904 10.984C15.176 11.56 15.312 12.2 15.312 12.904C15.312 13.544 15.192 14.136 14.952 14.68C14.728 15.224 14.4 15.704 13.968 16.12C13.552 16.52 13.048 16.848 12.456 17.104C11.864 17.344 11.2 17.504 10.464 17.584L13.08 21.928C13.416 22.52 13.784 23.072 14.184 23.584C14.584 24.08 15.048 24.552 15.576 25H12.672L8.232 17.608H4.152V25H1.92V8.2ZM9.912 17.272C10.424 17.272 10.856 17.176 11.208 16.984C11.576 16.776 11.88 16.504 12.12 16.168C12.36 15.816 12.536 15.424 12.648 14.992C12.76 14.544 12.816 14.08 12.816 13.6C12.816 12.992 12.728 12.392 12.552 11.8C12.376 11.192 12.112 10.648 11.76 10.168C11.408 9.688 10.968 9.296 10.44 8.992C9.912 8.688 9.296 8.536 8.592 8.536L4.152 8.56V17.248L9.912 17.272ZM18.2091 8.2H30.9291L31.1691 9.16C30.8811 9.08 30.5291 9.008 30.1131 8.944C29.6971 8.864 29.2491 8.8 28.7691 8.752C28.2891 8.704 27.7931 8.664 27.2811 8.632C26.7691 8.6 26.2651 8.576 25.7691 8.56H20.4411V16.504H29.9691V16.864H20.4411V24.64H26.2491C26.7451 24.624 27.2491 24.6 27.7611 24.568C28.2731 24.536 28.7691 24.496 29.2491 24.448C29.7291 24.4 30.1771 24.344 30.5931 24.28C31.0091 24.2 31.3611 24.12 31.6491 24.04L31.4091 25H18.2091V8.2ZM43.6847 23.8C44.3727 23.8 45.1487 23.696 46.0127 23.488C46.8767 23.264 47.7407 22.92 48.6047 22.456L48.7247 22.672C48.3247 23.104 47.8607 23.488 47.3327 23.824C46.8207 24.16 46.2847 24.448 45.7247 24.688C45.1647 24.912 44.6047 25.08 44.0447 25.192C43.4847 25.32 42.9647 25.384 42.4847 25.384C41.1247 25.384 39.8527 25.176 38.6687 24.76C37.5007 24.328 36.4847 23.728 35.6207 22.96C34.7727 22.192 34.1007 21.272 33.6047 20.2C33.1247 19.112 32.8847 17.912 32.8847 16.6C32.8847 15.272 33.1247 14.072 33.6047 13C34.1007 11.912 34.7727 10.984 35.6207 10.216C36.4847 9.448 37.5007 8.856 38.6687 8.44C39.8527 8.024 41.1247 7.816 42.4847 7.816C43.6367 7.816 44.6527 7.904 45.5327 8.08C46.4287 8.256 47.2367 8.496 47.9567 8.8L48.1487 9.784C47.8127 9.544 47.4047 9.328 46.9247 9.136C46.4447 8.928 45.9167 8.752 45.3407 8.608C44.7807 8.464 44.1807 8.352 43.5407 8.272C42.9167 8.176 42.2927 8.128 41.6687 8.128C40.6287 8.128 39.7007 8.328 38.8847 8.728C38.0687 9.128 37.3727 9.664 36.7967 10.336C36.2367 11.008 35.8047 11.776 35.5007 12.64C35.2127 13.504 35.0687 14.4 35.0687 15.328C35.0687 16.544 35.2687 17.672 35.6687 18.712C36.0847 19.736 36.6687 20.624 37.4207 21.376C38.1887 22.128 39.1007 22.72 40.1567 23.152C41.2127 23.584 42.3887 23.8 43.6847 23.8ZM51.3497 8.2H53.5817V16.816H64.5497V8.2H66.7817V25H64.5497V17.176L53.5817 17.2V25H51.3497V8.2ZM95.5528 8.2H103.305C104.153 8.2 104.921 8.312 105.609 8.536C106.313 8.76 106.905 9.08 107.385 9.496C107.881 9.896 108.265 10.392 108.537 10.984C108.809 11.56 108.945 12.2 108.945 12.904C108.945 13.544 108.825 14.136 108.585 14.68C108.361 15.224 108.033 15.704 107.601 16.12C107.185 16.52 106.681 16.848 106.089 17.104C105.497 17.344 104.833 17.504 104.097 17.584L106.713 21.928C107.049 22.52 107.417 23.072 107.817 23.584C108.217 24.08 108.681 24.552 109.209 25H106.305L101.865 17.608H97.7848V25H95.5528V8.2ZM103.545 17.272C104.057 17.272 104.489 17.176 104.841 16.984C105.209 16.776 105.513 16.504 105.753 16.168C105.993 15.816 106.169 15.424 106.281 14.992C106.393 14.544 106.449 14.08 106.449 13.6C106.449 12.992 106.361 12.392 106.185 11.8C106.009 11.192 105.745 10.648 105.393 10.168C105.041 9.688 104.601 9.296 104.073 8.992C103.545 8.688 102.929 8.536 102.225 8.536L97.7848 8.56V17.248L103.545 17.272ZM126.325 18.688V23.368C125.893 23.8 125.429 24.152 124.933 24.424C124.453 24.68 123.949 24.88 123.421 25.024C122.909 25.168 122.373 25.264 121.813 25.312C121.269 25.36 120.709 25.384 120.133 25.384C118.709 25.384 117.405 25.176 116.221 24.76C115.037 24.328 114.021 23.728 113.173 22.96C112.341 22.192 111.693 21.272 111.229 20.2C110.765 19.112 110.533 17.912 110.533 16.6C110.533 15.272 110.773 14.072 111.253 13C111.749 11.912 112.421 10.984 113.269 10.216C114.133 9.448 115.149 8.856 116.317 8.44C117.501 8.024 118.773 7.816 120.133 7.816C121.285 7.816 122.301 7.904 123.181 8.08C124.077 8.256 124.885 8.496 125.605 8.8L125.797 9.784C125.461 9.544 125.053 9.328 124.573 9.136C124.093 8.928 123.565 8.752 122.989 8.608C122.429 8.464 121.829 8.352 121.189 8.272C120.565 8.176 119.941 8.128 119.317 8.128C118.277 8.128 117.349 8.328 116.533 8.728C115.717 9.112 115.029 9.632 114.469 10.288C113.909 10.944 113.477 11.704 113.173 12.568C112.869 13.416 112.717 14.304 112.717 15.232C112.717 16.304 112.909 17.424 113.293 18.592C113.677 19.76 114.221 20.832 114.925 21.808C115.645 22.784 116.509 23.592 117.517 24.232C118.541 24.856 119.685 25.168 120.949 25.168C121.653 25.168 122.253 25.104 122.749 24.976C123.245 24.848 123.693 24.68 124.093 24.472V19.048H121.669C121.173 19.064 120.669 19.088 120.157 19.12C119.645 19.152 119.149 19.192 118.669 19.24C118.189 19.288 117.741 19.352 117.325 19.432C116.909 19.496 116.557 19.568 116.269 19.648L116.509 18.688H124.093H126.325ZM129.092 8.2H141.812L142.052 9.16C141.764 9.08 141.412 9.008 140.996 8.944C140.58 8.864 140.132 8.8 139.652 8.752C139.172 8.704 138.676 8.664 138.164 8.632C137.652 8.6 137.148 8.576 136.652 8.56H131.324V16.504H140.852V16.864H131.324V24.64H137.132C137.628 24.624 138.132 24.6 138.644 24.568C139.156 24.536 139.652 24.496 140.132 24.448C140.612 24.4 141.06 24.344 141.476 24.28C141.892 24.2 142.244 24.12 142.532 24.04L142.292 25H129.092V8.2Z" fill="#4B4B4B"/>
</svg>
